<svg width="18" height="19" viewBox="0 0 18 19" fill="none" xmlns="http://www.w3.org/2000/svg">
<path d="M9.10156 6.96875C9.10156 6.37875 9.33594 5.81291 9.75314 5.39571C10.1703 4.97852 10.7362 4.74414 11.3262 4.74414H15.7754C15.9229 4.74414 16.0644 4.80274 16.1687 4.90703C16.2729 5.01133 16.3315 5.15279 16.3315 5.30029V14.1987C16.3315 14.3462 16.2729 14.4877 16.1687 14.592C16.0644 14.6963 15.9229 14.7549 15.7754 14.7549H11.3262C10.7362 14.7549 10.1703 14.9893 9.75314 15.4065C9.33594 15.8237 9.10156 16.3895 9.10156 16.9795" stroke="#202020" stroke-width="1.5" stroke-linecap="round" stroke-linejoin="round"/>
<path d="M1.87158 14.1987C1.87158 14.3462 1.93018 14.4877 2.03448 14.592C2.13877 14.6963 2.28023 14.7549 2.42773 14.7549H6.87695C7.46696 14.7549 8.03279 14.9893 8.44999 15.4065C8.86718 15.8237 9.10156 16.3895 9.10156 16.9795V6.96875C9.10156 6.37875 8.86718 5.81291 8.44999 5.39571C8.03279 4.97852 7.46696 4.74414 6.87695 4.74414H2.42773C2.28023 4.74414 2.13877 4.80274 2.03448 4.90703C1.93018 5.01133 1.87158 5.15279 1.87158 5.30029V14.1987Z" stroke="#202020" stroke-width="1.5" stroke-linecap="round" stroke-linejoin="round"/>
</svg>
