<svg width="1280" height="112" viewBox="0 0 1280 112" fill="none" xmlns="http://www.w3.org/2000/svg">
<path d="M0 11.945C0 10.582 0.262116 9.27141 0.786349 8.01326C1.41543 6.65025 2.2542 5.3921 3.30267 4.23879C4.45598 3.08547 5.66171 2.2467 6.91987 1.72247C8.17803 1.09339 9.59346 0.77885 11.1662 0.77885L12.7389 0.621582H25.3204C26.7883 0.726427 28.1513 1.09339 29.4095 1.72247C30.7725 2.2467 31.9782 3.08547 33.0267 4.23879C34.18 5.28725 35.0187 6.49299 35.543 7.85599C36.1721 9.21899 36.4866 10.6344 36.4866 12.1023V37.8945H20.6023V15.2477C20.6023 14.9331 20.4975 14.6186 20.2878 14.304C20.183 13.9895 20.0257 13.7274 19.816 13.5177C19.6063 13.308 19.3442 13.1507 19.0296 13.0459C18.82 12.941 18.5578 12.8362 18.2433 12.7313C17.9288 12.8362 17.6142 12.941 17.2997 13.0459C16.9851 13.1507 16.723 13.308 16.5133 13.5177C16.3036 13.7274 16.1464 13.9895 16.0415 14.304C15.9367 14.6186 15.8842 14.9856 15.8842 15.4049V97.1852C15.8842 97.7095 15.9367 98.1288 16.0415 98.4434C16.1464 98.7579 16.3036 99.02 16.5133 99.2297C16.723 99.4394 16.9851 99.6491 17.2997 99.8588C17.6142 99.9637 17.9288 100.016 18.2433 100.016C18.5578 99.9112 18.82 99.8064 19.0296 99.7015C19.3442 99.4919 19.6063 99.2822 19.816 99.0725C20.0257 98.8628 20.183 98.6531 20.2878 98.4434C20.4975 98.1288 20.6023 97.8143 20.6023 97.4998V64.0013H36.4866V101.746C36.4866 103.214 36.2245 104.524 35.7002 105.678C35.176 106.726 34.3897 107.722 33.3412 108.666C32.2927 109.61 31.1394 110.291 29.8813 110.71C28.6231 111.13 27.2077 111.34 25.635 111.34L24.0623 111.497H10.5371C10.4322 111.392 10.3274 111.34 10.2225 111.34C10.1177 111.34 10.0128 111.34 9.908 111.34C9.80315 111.34 9.6983 111.34 9.59346 111.34C9.48861 111.34 9.38376 111.34 9.27892 111.34C8.12561 111.235 6.97229 110.973 5.81898 110.553C4.77052 110.134 3.77448 109.505 2.83086 108.666C1.88724 107.827 1.15331 106.936 0.629079 105.992C0.209693 104.944 0 103.895 0 102.847V11.945Z" fill="white"/>
<path d="M53.3838 0.621582H65.9654C67.2235 0.726427 68.4293 1.04097 69.5826 1.5652C70.8408 2.08943 71.9941 2.87578 73.0425 3.92424C74.1958 4.97271 75.087 6.0736 75.7161 7.22691C76.3452 8.27538 76.7646 9.37626 76.9743 10.5296C76.9743 10.6344 76.9743 10.7393 76.9743 10.8441C76.9743 10.8441 77.0267 10.8965 77.1315 11.0014C77.1315 11.1062 77.1315 11.2111 77.1315 11.3159C77.1315 11.3159 77.1315 11.3683 77.1315 11.4732C77.1315 11.578 77.1315 11.6829 77.1315 11.7877C77.1315 11.8926 77.1315 11.9974 77.1315 12.1023V100.488C77.1315 100.698 77.1315 100.907 77.1315 101.117C77.1315 101.222 77.1315 101.327 77.1315 101.432C77.0267 101.641 76.9743 101.798 76.9743 101.903C76.9743 102.008 76.9743 102.165 76.9743 102.375C76.9743 102.69 76.9218 103.004 76.817 103.319C76.817 103.528 76.7646 103.738 76.6597 103.948C76.3452 104.891 75.9258 105.783 75.4016 106.621C74.8773 107.46 74.1958 108.299 73.3571 109.138C72.5183 109.872 71.4698 110.448 70.2117 110.868C69.0584 111.182 67.6954 111.34 66.1227 111.34L64.55 111.497H51.8111C50.2384 111.392 48.823 111.182 47.5648 110.868C46.4115 110.448 45.4155 109.872 44.5767 109.138C43.7379 108.299 43.004 107.46 42.3749 106.621C41.8507 105.783 41.4837 104.891 41.274 103.948C41.1692 103.738 41.0643 103.528 40.9595 103.319C40.8546 103.004 40.8022 102.69 40.8022 102.375C40.8022 102.165 40.8022 102.008 40.8022 101.903C40.8022 101.798 40.8022 101.641 40.8022 101.432C40.8022 101.327 40.8022 101.222 40.8022 101.117C40.8022 100.907 40.8022 100.75 40.8022 100.645V11.945C40.8022 11.945 40.8022 11.8926 40.8022 11.7877C40.8022 11.6829 40.8022 11.578 40.8022 11.4732C40.8022 11.2635 40.8022 11.1062 40.8022 11.0014C40.8022 10.7917 40.8546 10.6344 40.9595 10.5296C41.1692 9.37626 41.5886 8.27538 42.2176 7.22691C42.8467 6.0736 43.6855 4.97271 44.734 3.92424C45.8873 2.87578 47.0406 2.08943 48.1939 1.5652C49.3472 1.04097 50.5529 0.77885 51.8111 0.77885L53.3838 0.621582ZM61.09 15.2477C61.09 14.9331 61.0376 14.6186 60.9328 14.304C60.8279 13.9895 60.6706 13.7798 60.4609 13.675C60.2513 13.4653 59.9891 13.308 59.6746 13.2032C59.4649 13.0983 59.2028 12.9935 58.8882 12.8886C58.5737 12.9935 58.2592 13.0983 57.9446 13.2032C57.7349 13.308 57.5252 13.4653 57.3155 13.675C57.1059 13.7798 56.9486 13.9895 56.8437 14.304C56.7389 14.6186 56.6865 14.9856 56.6865 15.4049V97.1852C56.6865 97.7095 56.7389 98.1288 56.8437 98.4434C56.9486 98.6531 57.1059 98.8628 57.3155 99.0725C57.5252 99.2822 57.7349 99.4919 57.9446 99.7015C58.1543 99.8064 58.4164 99.9112 58.731 100.016C59.0455 99.9112 59.3076 99.8064 59.5173 99.7015C59.8319 99.4919 60.094 99.2822 60.3037 99.0725C60.5134 98.8628 60.6706 98.6531 60.7755 98.4434C60.9852 98.1288 61.09 97.7619 61.09 97.3425V15.2477Z" fill="white"/>
<path d="M97.1741 1.5652V99.5443H106.296V111.182H81.4472V1.5652H97.1741Z" fill="white"/>
<path d="M123.997 1.5652V99.5443H133.118V111.182H108.27V1.5652H123.997Z" fill="white"/>
<path d="M150.819 44.8144H159.783V56.2951H150.819V99.5443H159.941V111.182H135.092V1.5652H159.783V13.2032H150.819V44.8144Z" fill="white"/>
<path d="M161.757 11.945C161.757 10.582 162.019 9.27141 162.543 8.01326C163.173 6.65025 164.011 5.3921 165.06 4.23879C166.213 3.08547 167.419 2.2467 168.677 1.72247C169.935 1.09339 171.351 0.77885 172.923 0.77885L174.496 0.621582H187.078C188.545 0.726427 189.908 1.09339 191.167 1.72247C192.53 2.2467 193.735 3.08547 194.784 4.23879C195.937 5.28725 196.776 6.49299 197.3 7.85599C197.929 9.21899 198.244 10.6344 198.244 12.1023V37.8945H182.359V15.2477C182.359 14.9331 182.255 14.6186 182.045 14.304C181.94 13.9895 181.783 13.7274 181.573 13.5177C181.363 13.308 181.101 13.1507 180.787 13.0459C180.577 12.941 180.315 12.8362 180 12.7313C179.686 12.8362 179.371 12.941 179.057 13.0459C178.742 13.1507 178.48 13.308 178.27 13.5177C178.061 13.7274 177.903 13.9895 177.799 14.304C177.694 14.6186 177.641 14.9856 177.641 15.4049V97.1852C177.641 97.7095 177.694 98.1288 177.799 98.4434C177.903 98.7579 178.061 99.02 178.27 99.2297C178.48 99.4394 178.742 99.6491 179.057 99.8588C179.371 99.9637 179.686 100.016 180 100.016C180.315 99.9112 180.577 99.8064 180.787 99.7015C181.101 99.4919 181.363 99.2822 181.573 99.0725C181.783 98.8628 181.94 98.6531 182.045 98.4434C182.255 98.1288 182.359 97.8143 182.359 97.4998V64.0013H198.244V101.746C198.244 103.214 197.982 104.524 197.457 105.678C196.933 106.726 196.147 107.722 195.098 108.666C194.05 109.61 192.897 110.291 191.638 110.71C190.38 111.13 188.965 111.34 187.392 111.34L185.819 111.497H172.294C172.189 111.392 172.085 111.34 171.98 111.34C171.875 111.34 171.77 111.34 171.665 111.34C171.56 111.34 171.455 111.34 171.351 111.34C171.246 111.34 171.141 111.34 171.036 111.34C169.883 111.235 168.729 110.973 167.576 110.553C166.528 110.134 165.532 109.505 164.588 108.666C163.644 107.827 162.91 106.936 162.386 105.992C161.967 104.944 161.757 103.895 161.757 102.847V11.945Z" fill="white"/>
<path d="M206.806 13.2032H200.043V1.5652H229.452V13.2032H222.69V111.182H206.806V13.2032Z" fill="white"/>
<path d="M265.943 44.3426H274.907V55.8233H265.943V99.0725H275.064V110.71H250.216V1.09339H274.907V12.7314H265.943V44.3426Z" fill="white"/>
<path d="M307.077 1.09339L314.783 110.71H299.842L298.427 86.4909H292.451L291.035 110.71H276.095L283.801 1.09339H307.077ZM295.439 27.672L293.08 74.2238H297.798L295.439 27.672Z" fill="white"/>
<path d="M345.622 0.621582C345.727 0.726427 345.779 0.77885 345.779 0.77885C345.884 0.77885 345.989 0.77885 346.094 0.77885C346.199 0.883701 346.251 0.936127 346.251 0.936127C346.356 0.936127 346.461 0.936127 346.566 0.936127C346.775 0.936127 346.932 0.936127 347.037 0.936127C347.247 0.936127 347.404 0.936127 347.509 0.936127C348.662 1.25066 349.711 1.72247 350.655 2.35156C351.703 2.98063 352.699 3.76698 353.643 4.7106C354.586 5.65422 355.268 6.70268 355.687 7.85599C356.211 9.00931 356.474 10.215 356.474 11.4732V45.2862C356.474 45.4959 356.474 45.6532 356.474 45.758C356.474 45.8629 356.474 45.9677 356.474 46.0726C356.369 46.2822 356.316 46.4395 356.316 46.5444C356.316 46.6492 356.316 46.7541 356.316 46.8589C356.316 47.0686 356.264 47.2783 356.159 47.488C356.159 47.6977 356.107 47.9074 356.002 48.1171C355.792 48.9558 355.477 49.7946 355.058 50.6334C354.639 51.3673 354.167 52.1012 353.643 52.8352C353.118 53.5691 352.542 54.1982 351.913 54.7224C351.388 55.1418 350.812 55.5087 350.183 55.8233C350.812 56.2427 351.388 56.7145 351.913 57.2387C352.542 57.6581 353.066 58.1299 353.485 58.6541C354.01 59.1784 354.429 59.7026 354.744 60.2268C355.058 60.7511 355.373 61.2753 355.687 61.7995C355.897 62.1141 356.002 62.4286 356.002 62.7432C356.107 63.0577 356.211 63.3722 356.316 63.6868C356.316 63.7916 356.316 63.9489 356.316 64.1586C356.316 64.2634 356.369 64.4207 356.474 64.6304C356.474 64.7352 356.474 64.8925 356.474 65.1022C356.474 65.207 356.474 65.3119 356.474 65.4167V110.71H340.589V64.9449C340.589 64.6304 340.484 64.3158 340.275 64.0013C340.065 63.6868 339.751 63.4247 339.331 63.215C338.912 63.0053 338.387 62.848 337.758 62.7432C337.234 62.5335 336.605 62.4286 335.871 62.4286V110.71H319.987V0.621582H345.622ZM340.589 15.0904C340.589 14.671 340.484 14.3041 340.275 13.9895C340.065 13.675 339.751 13.4129 339.331 13.2032C338.912 12.9935 338.44 12.8362 337.916 12.7314C337.391 12.6265 336.71 12.5741 335.871 12.5741V49.6898C335.976 49.7946 336.028 49.847 336.028 49.847C336.133 49.847 336.238 49.847 336.343 49.847C336.448 49.847 336.553 49.847 336.658 49.847C336.658 49.9519 336.658 50.0043 336.658 50.0043C336.762 50.0043 336.815 50.0043 336.815 50.0043C337.444 49.8994 337.968 49.7946 338.387 49.6898C338.912 49.4801 339.331 49.2704 339.646 49.0607C339.96 48.851 340.17 48.6413 340.275 48.4316C340.484 48.1171 340.589 47.7501 340.589 47.3307V15.0904Z" fill="white"/>
<path d="M376.831 1.09339L384.38 49.3752V1.09339H398.377V110.71H382.65L375.101 58.4969V110.71H361.104V1.09339H376.831Z" fill="white"/>
<path d="M425.942 12.7314H419.18V1.09339H448.589V12.7314H441.827V110.71H425.942V12.7314Z" fill="white"/>
<path d="M476.15 0.621582C476.255 0.726427 476.307 0.77885 476.307 0.77885C476.412 0.77885 476.517 0.77885 476.622 0.77885C476.727 0.883701 476.779 0.936127 476.779 0.936127C476.884 0.936127 476.989 0.936127 477.094 0.936127C477.303 0.936127 477.461 0.936127 477.565 0.936127C477.775 0.936127 477.932 0.936127 478.037 0.936127C479.191 1.25066 480.239 1.72247 481.183 2.35156C482.231 2.98063 483.227 3.76698 484.171 4.7106C485.114 5.65422 485.796 6.70268 486.215 7.85599C486.739 9.00931 487.002 10.215 487.002 11.4732V45.2862C487.002 45.4959 487.002 45.6532 487.002 45.758C487.002 45.8629 487.002 45.9677 487.002 46.0726C486.897 46.2822 486.844 46.4395 486.844 46.5444C486.844 46.6492 486.844 46.7541 486.844 46.8589C486.844 47.0686 486.792 47.2783 486.687 47.488C486.687 47.6977 486.635 47.9074 486.53 48.1171C486.32 48.9558 486.006 49.7946 485.586 50.6334C485.167 51.3673 484.695 52.1012 484.171 52.8352C483.646 53.5691 483.07 54.1982 482.441 54.7224C481.917 55.1418 481.34 55.5087 480.711 55.8233C481.34 56.2427 481.917 56.7145 482.441 57.2387C483.07 57.6581 483.594 58.1299 484.013 58.6541C484.538 59.1784 484.957 59.7026 485.272 60.2268C485.586 60.7511 485.901 61.2753 486.215 61.7995C486.425 62.1141 486.53 62.4286 486.53 62.7432C486.635 63.0577 486.739 63.3722 486.844 63.6868C486.844 63.7916 486.844 63.9489 486.844 64.1586C486.844 64.2634 486.897 64.4207 487.002 64.6304C487.002 64.7352 487.002 64.8925 487.002 65.1022C487.002 65.207 487.002 65.3119 487.002 65.4167V110.71H471.117V64.9449C471.117 64.6304 471.012 64.3158 470.803 64.0013C470.593 63.6868 470.279 63.4247 469.859 63.215C469.44 63.0053 468.916 62.848 468.286 62.7432C467.762 62.5335 467.133 62.4286 466.399 62.4286V110.71H450.515V0.621582H476.15ZM471.117 15.0904C471.117 14.671 471.012 14.3041 470.803 13.9895C470.593 13.675 470.279 13.4129 469.859 13.2032C469.44 12.9935 468.968 12.8362 468.444 12.7314C467.92 12.6265 467.238 12.5741 466.399 12.5741V49.6898C466.504 49.7946 466.557 49.847 466.557 49.847C466.661 49.847 466.766 49.847 466.871 49.847C466.976 49.847 467.081 49.847 467.186 49.847C467.186 49.9519 467.186 50.0043 467.186 50.0043C467.29 50.0043 467.343 50.0043 467.343 50.0043C467.972 49.8994 468.496 49.7946 468.916 49.6898C469.44 49.4801 469.859 49.2704 470.174 49.0607C470.488 48.851 470.698 48.6413 470.803 48.4316C471.012 48.1171 471.117 47.7501 471.117 47.3307V15.0904Z" fill="white"/>
<path d="M521.198 1.09339L528.905 110.71H513.964L512.549 86.4909H506.572L505.157 110.71H490.216L497.923 1.09339H521.198ZM509.561 27.672L507.201 74.2238H511.92L509.561 27.672Z" fill="white"/>
<path d="M557.699 0.621582C559.482 0.726427 561.107 1.09339 562.574 1.72248C564.147 2.35155 565.563 3.29517 566.821 4.55333C567.974 5.81149 568.865 7.17449 569.494 8.64234C570.123 10.1102 570.438 11.6305 570.438 13.2032V97.8143C570.438 99.7016 570.123 101.432 569.494 103.004C568.865 104.472 567.974 105.835 566.821 107.093C565.667 108.351 564.409 109.295 563.046 109.924C561.683 110.448 560.268 110.71 558.8 110.71H533.951V0.621582H557.699ZM554.396 15.0904C554.396 14.8807 554.292 14.6186 554.082 14.3041C553.872 13.9895 553.61 13.675 553.296 13.3604C552.981 13.1507 552.614 12.9935 552.195 12.8886C551.775 12.6789 551.303 12.5741 550.779 12.5741L549.836 12.4168V99.0725H550.779C551.303 99.1773 551.775 99.1773 552.195 99.0725C552.719 98.9676 553.138 98.7579 553.453 98.4434C553.767 98.1289 553.977 97.8143 554.082 97.4998C554.292 97.0804 554.396 96.661 554.396 96.2416V15.0904Z" fill="white"/>
<path d="M590.481 44.3426H599.445V55.8233H590.481V99.0725H599.602V110.71H574.754V1.09339H599.445V12.7314H590.481V44.3426Z" fill="white"/>
<path d="M619.602 11.945C619.602 10.582 619.864 9.27141 620.389 8.01326C621.018 6.65025 621.856 5.3921 622.905 4.23879C624.058 3.08547 625.264 2.2467 626.522 1.72247C627.78 1.09339 629.196 0.77885 630.768 0.77885L632.341 0.621582H644.923C646.391 0.726427 647.754 1.09339 649.012 1.72247C650.375 2.2467 651.58 3.08547 652.629 4.23879C653.782 5.28725 654.621 6.49299 655.145 7.85599C655.774 9.21899 656.089 10.6344 656.089 12.1023V37.8945H640.205V15.2477C640.205 14.9331 640.1 14.6186 639.89 14.304C639.785 13.9895 639.628 13.7274 639.418 13.5177C639.209 13.308 638.946 13.1507 638.632 13.0459C638.422 12.941 638.16 12.8362 637.846 12.7313C637.531 12.8362 637.217 12.941 636.902 13.0459C636.587 13.1507 636.325 13.308 636.116 13.5177C635.906 13.7274 635.749 13.9895 635.644 14.304C635.539 14.6186 635.487 14.9856 635.487 15.4049V97.1852C635.487 97.7095 635.539 98.1288 635.644 98.4434C635.749 98.7579 635.906 99.02 636.116 99.2297C636.325 99.4394 636.587 99.6491 636.902 99.8588C637.217 99.9637 637.531 100.016 637.846 100.016C638.16 99.9112 638.422 99.8064 638.632 99.7015C638.946 99.4919 639.209 99.2822 639.418 99.0725C639.628 98.8628 639.785 98.6531 639.89 98.4434C640.1 98.1288 640.205 97.8143 640.205 97.4998V64.0013H656.089V101.746C656.089 103.214 655.827 104.524 655.303 105.678C654.778 106.726 653.992 107.722 652.943 108.666C651.895 109.61 650.742 110.291 649.484 110.71C648.225 111.13 646.81 111.34 645.237 111.34L643.665 111.497H630.139C630.035 111.392 629.93 111.34 629.825 111.34C629.72 111.34 629.615 111.34 629.51 111.34C629.405 111.34 629.301 111.34 629.196 111.34C629.091 111.34 628.986 111.34 628.881 111.34C627.728 111.235 626.575 110.973 625.421 110.553C624.373 110.134 623.377 109.505 622.433 108.666C621.49 107.827 620.756 106.936 620.231 105.992C619.812 104.944 619.602 103.895 619.602 102.847V11.945Z" fill="white"/>
<path d="M672.986 0.621582H685.568C686.826 0.726427 688.032 1.04097 689.185 1.5652C690.443 2.08943 691.596 2.87578 692.645 3.92424C693.798 4.97271 694.689 6.0736 695.318 7.22691C695.947 8.27538 696.367 9.37626 696.577 10.5296C696.577 10.6344 696.577 10.7393 696.577 10.8441C696.577 10.8441 696.629 10.8965 696.734 11.0014C696.734 11.1062 696.734 11.2111 696.734 11.3159C696.734 11.3159 696.734 11.3683 696.734 11.4732C696.734 11.578 696.734 11.6829 696.734 11.7877C696.734 11.8926 696.734 11.9974 696.734 12.1023V100.488C696.734 100.698 696.734 100.907 696.734 101.117C696.734 101.222 696.734 101.327 696.734 101.432C696.629 101.641 696.577 101.798 696.577 101.903C696.577 102.008 696.577 102.165 696.577 102.375C696.577 102.69 696.524 103.004 696.419 103.319C696.419 103.528 696.367 103.738 696.262 103.948C695.947 104.891 695.528 105.783 695.004 106.621C694.48 107.46 693.798 108.299 692.959 109.138C692.121 109.872 691.072 110.448 689.814 110.868C688.661 111.182 687.298 111.34 685.725 111.34L684.152 111.497H671.413C669.841 111.392 668.425 111.182 667.167 110.868C666.014 110.448 665.018 109.872 664.179 109.138C663.34 108.299 662.606 107.46 661.977 106.621C661.453 105.783 661.086 104.891 660.876 103.948C660.771 103.738 660.667 103.528 660.562 103.319C660.457 103.004 660.405 102.69 660.405 102.375C660.405 102.165 660.405 102.008 660.405 101.903C660.405 101.798 660.405 101.641 660.405 101.432C660.405 101.327 660.405 101.222 660.405 101.117C660.405 100.907 660.405 100.75 660.405 100.645V11.945C660.405 11.945 660.405 11.8926 660.405 11.7877C660.405 11.6829 660.405 11.578 660.405 11.4732C660.405 11.2635 660.405 11.1062 660.405 11.0014C660.405 10.7917 660.457 10.6344 660.562 10.5296C660.771 9.37626 661.191 8.27538 661.82 7.22691C662.449 6.0736 663.288 4.97271 664.336 3.92424C665.49 2.87578 666.643 2.08943 667.796 1.5652C668.95 1.04097 670.155 0.77885 671.413 0.77885L672.986 0.621582ZM680.692 15.2477C680.692 14.9331 680.64 14.6186 680.535 14.304C680.43 13.9895 680.273 13.7798 680.063 13.675C679.854 13.4653 679.591 13.308 679.277 13.2032C679.067 13.0983 678.805 12.9935 678.491 12.8886C678.176 12.9935 677.861 13.0983 677.547 13.2032C677.337 13.308 677.128 13.4653 676.918 13.675C676.708 13.7798 676.551 13.9895 676.446 14.304C676.341 14.6186 676.289 14.9856 676.289 15.4049V97.1852C676.289 97.7095 676.341 98.1288 676.446 98.4434C676.551 98.6531 676.708 98.8628 676.918 99.0725C677.128 99.2822 677.337 99.4919 677.547 99.7015C677.757 99.8064 678.019 99.9112 678.333 100.016C678.648 99.9112 678.91 99.8064 679.12 99.7015C679.434 99.4919 679.696 99.2822 679.906 99.0725C680.116 98.8628 680.273 98.6531 680.378 98.4434C680.587 98.1288 680.692 97.7619 680.692 97.3425V15.2477Z" fill="white"/>
<path d="M716.776 1.5652V99.5443H725.898V111.182H701.049V1.5652H716.776Z" fill="white"/>
<path d="M743.599 1.5652V99.5443H752.72V111.182H727.872V1.5652H743.599Z" fill="white"/>
<path d="M770.421 44.8144H779.386V56.2951H770.421V99.5443H779.543V111.182H754.694V1.5652H779.386V13.2032H770.421V44.8144Z" fill="white"/>
<path d="M781.359 11.945C781.359 10.582 781.622 9.27141 782.146 8.01326C782.775 6.65025 783.614 5.3921 784.662 4.23879C785.815 3.08547 787.021 2.2467 788.279 1.72247C789.537 1.09339 790.953 0.77885 792.526 0.77885L794.098 0.621582H806.68C808.148 0.726427 809.511 1.09339 810.769 1.72247C812.132 2.2467 813.338 3.08547 814.386 4.23879C815.539 5.28725 816.378 6.49299 816.902 7.85599C817.531 9.21899 817.846 10.6344 817.846 12.1023V37.8945H801.962V15.2477C801.962 14.9331 801.857 14.6186 801.647 14.304C801.542 13.9895 801.385 13.7274 801.175 13.5177C800.966 13.308 800.704 13.1507 800.389 13.0459C800.179 12.941 799.917 12.8362 799.603 12.7313C799.288 12.8362 798.974 12.941 798.659 13.0459C798.345 13.1507 798.082 13.308 797.873 13.5177C797.663 13.7274 797.506 13.9895 797.401 14.304C797.296 14.6186 797.244 14.9856 797.244 15.4049V97.1852C797.244 97.7095 797.296 98.1288 797.401 98.4434C797.506 98.7579 797.663 99.02 797.873 99.2297C798.082 99.4394 798.345 99.6491 798.659 99.8588C798.974 99.9637 799.288 100.016 799.603 100.016C799.917 99.9112 800.179 99.8064 800.389 99.7015C800.704 99.4919 800.966 99.2822 801.175 99.0725C801.385 98.8628 801.542 98.6531 801.647 98.4434C801.857 98.1288 801.962 97.8143 801.962 97.4998V64.0013H817.846V101.746C817.846 103.214 817.584 104.524 817.06 105.678C816.535 106.726 815.749 107.722 814.701 108.666C813.652 109.61 812.499 110.291 811.241 110.71C809.983 111.13 808.567 111.34 806.994 111.34L805.422 111.497H791.896C791.792 111.392 791.687 111.34 791.582 111.34C791.477 111.34 791.372 111.34 791.267 111.34C791.163 111.34 791.058 111.34 790.953 111.34C790.848 111.34 790.743 111.34 790.638 111.34C789.485 111.235 788.332 110.973 787.178 110.553C786.13 110.134 785.134 109.505 784.19 108.666C783.247 107.827 782.513 106.936 781.988 105.992C781.569 104.944 781.359 103.895 781.359 102.847V11.945Z" fill="white"/>
<path d="M826.408 13.2032H819.645V1.5652H849.055V13.2032H842.292V111.182H826.408V13.2032Z" fill="white"/>
<path d="M885.545 44.3426H894.509V55.8233H885.545V99.0725H894.667V110.71H869.818V1.09339H894.509V12.7314H885.545V44.3426Z" fill="white"/>
<path d="M926.679 1.09339L934.385 110.71H919.445L918.029 86.4909H912.053L910.638 110.71H895.697L903.403 1.09339H926.679ZM915.041 27.672L912.682 74.2238H917.4L915.041 27.672Z" fill="white"/>
<path d="M965.224 0.621582C965.329 0.726427 965.381 0.77885 965.381 0.77885C965.486 0.77885 965.591 0.77885 965.696 0.77885C965.801 0.883701 965.853 0.936127 965.853 0.936127C965.958 0.936127 966.063 0.936127 966.168 0.936127C966.378 0.936127 966.535 0.936127 966.64 0.936127C966.849 0.936127 967.007 0.936127 967.111 0.936127C968.265 1.25066 969.313 1.72247 970.257 2.35156C971.305 2.98063 972.301 3.76698 973.245 4.7106C974.189 5.65422 974.87 6.70268 975.289 7.85599C975.814 9.00931 976.076 10.215 976.076 11.4732V45.2862C976.076 45.4959 976.076 45.6532 976.076 45.758C976.076 45.8629 976.076 45.9677 976.076 46.0726C975.971 46.2822 975.919 46.4395 975.919 46.5444C975.919 46.6492 975.919 46.7541 975.919 46.8589C975.919 47.0686 975.866 47.2783 975.761 47.488C975.761 47.6977 975.709 47.9074 975.604 48.1171C975.394 48.9558 975.08 49.7946 974.66 50.6334C974.241 51.3673 973.769 52.1012 973.245 52.8352C972.721 53.5691 972.144 54.1982 971.515 54.7224C970.991 55.1418 970.414 55.5087 969.785 55.8233C970.414 56.2427 970.991 56.7145 971.515 57.2387C972.144 57.6581 972.668 58.1299 973.088 58.6541C973.612 59.1784 974.031 59.7026 974.346 60.2268C974.66 60.7511 974.975 61.2753 975.289 61.7995C975.499 62.1141 975.604 62.4286 975.604 62.7432C975.709 63.0577 975.814 63.3722 975.919 63.6868C975.919 63.7916 975.919 63.9489 975.919 64.1586C975.919 64.2634 975.971 64.4207 976.076 64.6304C976.076 64.7352 976.076 64.8925 976.076 65.1022C976.076 65.207 976.076 65.3119 976.076 65.4167V110.71H960.192V64.9449C960.192 64.6304 960.087 64.3158 959.877 64.0013C959.667 63.6868 959.353 63.4247 958.933 63.215C958.514 63.0053 957.99 62.848 957.361 62.7432C956.836 62.5335 956.207 62.4286 955.473 62.4286V110.71H939.589V0.621582H965.224ZM960.192 15.0904C960.192 14.671 960.087 14.3041 959.877 13.9895C959.667 13.675 959.353 13.4129 958.933 13.2032C958.514 12.9935 958.042 12.8362 957.518 12.7314C956.994 12.6265 956.312 12.5741 955.473 12.5741V49.6898C955.578 49.7946 955.631 49.847 955.631 49.847C955.736 49.847 955.84 49.847 955.945 49.847C956.05 49.847 956.155 49.847 956.26 49.847C956.26 49.9519 956.26 50.0043 956.26 50.0043C956.365 50.0043 956.417 50.0043 956.417 50.0043C957.046 49.8994 957.57 49.7946 957.99 49.6898C958.514 49.4801 958.933 49.2704 959.248 49.0607C959.562 48.851 959.772 48.6413 959.877 48.4316C960.087 48.1171 960.192 47.7501 960.192 47.3307V15.0904Z" fill="white"/>
<path d="M996.433 1.09339L1003.98 49.3752V1.09339H1017.98V110.71H1002.25L994.703 58.4969V110.71H980.706V1.09339H996.433Z" fill="white"/>
<path d="M1045.54 12.7314H1038.78V1.09339H1068.19V12.7314H1061.43V110.71H1045.54V12.7314Z" fill="white"/>
<path d="M1095.75 0.621582C1095.86 0.726427 1095.91 0.77885 1095.91 0.77885C1096.01 0.77885 1096.12 0.77885 1096.22 0.77885C1096.33 0.883701 1096.38 0.936127 1096.38 0.936127C1096.49 0.936127 1096.59 0.936127 1096.7 0.936127C1096.91 0.936127 1097.06 0.936127 1097.17 0.936127C1097.38 0.936127 1097.53 0.936127 1097.64 0.936127C1098.79 1.25066 1099.84 1.72247 1100.78 2.35156C1101.83 2.98063 1102.83 3.76698 1103.77 4.7106C1104.72 5.65422 1105.4 6.70268 1105.82 7.85599C1106.34 9.00931 1106.6 10.215 1106.6 11.4732V45.2862C1106.6 45.4959 1106.6 45.6532 1106.6 45.758C1106.6 45.8629 1106.6 45.9677 1106.6 46.0726C1106.5 46.2822 1106.45 46.4395 1106.45 46.5444C1106.45 46.6492 1106.45 46.7541 1106.45 46.8589C1106.45 47.0686 1106.39 47.2783 1106.29 47.488C1106.29 47.6977 1106.24 47.9074 1106.13 48.1171C1105.92 48.9558 1105.61 49.7946 1105.19 50.6334C1104.77 51.3673 1104.3 52.1012 1103.77 52.8352C1103.25 53.5691 1102.67 54.1982 1102.04 54.7224C1101.52 55.1418 1100.94 55.5087 1100.31 55.8233C1100.94 56.2427 1101.52 56.7145 1102.04 57.2387C1102.67 57.6581 1103.2 58.1299 1103.62 58.6541C1104.14 59.1784 1104.56 59.7026 1104.87 60.2268C1105.19 60.7511 1105.5 61.2753 1105.82 61.7995C1106.03 62.1141 1106.13 62.4286 1106.13 62.7432C1106.24 63.0577 1106.34 63.3722 1106.45 63.6868C1106.45 63.7916 1106.45 63.9489 1106.45 64.1586C1106.45 64.2634 1106.5 64.4207 1106.6 64.6304C1106.6 64.7352 1106.6 64.8925 1106.6 65.1022C1106.6 65.207 1106.6 65.3119 1106.6 65.4167V110.71H1090.72V64.9449C1090.72 64.6304 1090.61 64.3158 1090.41 64.0013C1090.2 63.6868 1089.88 63.4247 1089.46 63.215C1089.04 63.0053 1088.52 62.848 1087.89 62.7432C1087.36 62.5335 1086.74 62.4286 1086 62.4286V110.71H1070.12V0.621582H1095.75ZM1090.72 15.0904C1090.72 14.671 1090.61 14.3041 1090.41 13.9895C1090.2 13.675 1089.88 13.4129 1089.46 13.2032C1089.04 12.9935 1088.57 12.8362 1088.05 12.7314C1087.52 12.6265 1086.84 12.5741 1086 12.5741V49.6898C1086.11 49.7946 1086.16 49.847 1086.16 49.847C1086.26 49.847 1086.37 49.847 1086.47 49.847C1086.58 49.847 1086.68 49.847 1086.79 49.847C1086.79 49.9519 1086.79 50.0043 1086.79 50.0043C1086.89 50.0043 1086.95 50.0043 1086.95 50.0043C1087.57 49.8994 1088.1 49.7946 1088.52 49.6898C1089.04 49.4801 1089.46 49.2704 1089.78 49.0607C1090.09 48.851 1090.3 48.6413 1090.41 48.4316C1090.61 48.1171 1090.72 47.7501 1090.72 47.3307V15.0904Z" fill="white"/>
<path d="M1140.8 1.09339L1148.51 110.71H1133.57L1132.15 86.4909H1126.17L1124.76 110.71H1109.82L1117.52 1.09339H1140.8ZM1129.16 27.672L1126.8 74.2238H1131.52L1129.16 27.672Z" fill="white"/>
<path d="M1177.3 0.621582C1179.08 0.726427 1180.71 1.09339 1182.18 1.72248C1183.75 2.35155 1185.16 3.29517 1186.42 4.55333C1187.58 5.81149 1188.47 7.17449 1189.1 8.64234C1189.73 10.1102 1190.04 11.6305 1190.04 13.2032V97.8143C1190.04 99.7016 1189.73 101.432 1189.1 103.004C1188.47 104.472 1187.58 105.835 1186.42 107.093C1185.27 108.351 1184.01 109.295 1182.65 109.924C1181.29 110.448 1179.87 110.71 1178.4 110.71H1153.55V0.621582H1177.3ZM1174 15.0904C1174 14.8807 1173.89 14.6186 1173.68 14.3041C1173.47 13.9895 1173.21 13.675 1172.9 13.3604C1172.58 13.1507 1172.22 12.9935 1171.8 12.8886C1171.38 12.6789 1170.91 12.5741 1170.38 12.5741L1169.44 12.4168V99.0725H1170.38C1170.91 99.1773 1171.38 99.1773 1171.8 99.0725C1172.32 98.9676 1172.74 98.7579 1173.06 98.4434C1173.37 98.1289 1173.58 97.8143 1173.68 97.4998C1173.89 97.0804 1174 96.661 1174 96.2416V15.0904Z" fill="white"/>
<path d="M1210.08 44.3426H1219.05V55.8233H1210.08V99.0725H1219.2V110.71H1194.36V1.09339H1219.05V12.7314H1210.08V44.3426Z" fill="white"/>
<path d="M1239.2 11.945C1239.2 10.582 1239.47 9.27141 1239.99 8.01326C1240.62 6.65025 1241.46 5.3921 1242.51 4.23879C1243.66 3.08547 1244.87 2.2467 1246.12 1.72247C1247.38 1.09339 1248.8 0.77885 1250.37 0.77885L1251.94 0.621582H1264.53C1265.99 0.726427 1267.36 1.09339 1268.61 1.72247C1269.98 2.2467 1271.18 3.08547 1272.23 4.23879C1273.38 5.28725 1274.22 6.49299 1274.75 7.85599C1275.38 9.21899 1275.69 10.6344 1275.69 12.1023V37.8945H1259.81V15.2477C1259.81 14.9331 1259.7 14.6186 1259.49 14.304C1259.39 13.9895 1259.23 13.7274 1259.02 13.5177C1258.81 13.308 1258.55 13.1507 1258.23 13.0459C1258.02 12.941 1257.76 12.8362 1257.45 12.7313C1257.13 12.8362 1256.82 12.941 1256.5 13.0459C1256.19 13.1507 1255.93 13.308 1255.72 13.5177C1255.51 13.7274 1255.35 13.9895 1255.25 14.304C1255.14 14.6186 1255.09 14.9856 1255.09 15.4049V97.1852C1255.09 97.7095 1255.14 98.1288 1255.25 98.4434C1255.35 98.7579 1255.51 99.02 1255.72 99.2297C1255.93 99.4394 1256.19 99.6491 1256.5 99.8588C1256.82 99.9637 1257.13 100.016 1257.45 100.016C1257.76 99.9112 1258.02 99.8064 1258.23 99.7015C1258.55 99.4919 1258.81 99.2822 1259.02 99.0725C1259.23 98.8628 1259.39 98.6531 1259.49 98.4434C1259.7 98.1288 1259.81 97.8143 1259.81 97.4998V64.0013H1275.69V101.746C1275.69 103.214 1275.43 104.524 1274.9 105.678C1274.38 106.726 1273.59 107.722 1272.55 108.666C1271.5 109.61 1270.34 110.291 1269.09 110.71C1267.83 111.13 1266.41 111.34 1264.84 111.34L1263.27 111.497H1249.74C1249.64 111.392 1249.53 111.34 1249.43 111.34C1249.32 111.34 1249.22 111.34 1249.11 111.34C1249.01 111.34 1248.9 111.34 1248.8 111.34C1248.69 111.34 1248.59 111.34 1248.48 111.34C1247.33 111.235 1246.18 110.973 1245.02 110.553C1243.98 110.134 1242.98 109.505 1242.04 108.666C1241.09 107.827 1240.36 106.936 1239.83 105.992C1239.41 104.944 1239.2 103.895 1239.2 102.847V11.945Z" fill="white"/>
<path d="M1292.59 0.621582H1305.17C1306.43 0.726427 1307.63 1.04097 1308.79 1.5652C1310.05 2.08943 1311.2 2.87578 1312.25 3.92424C1313.4 4.97271 1314.29 6.0736 1314.92 7.22691C1315.55 8.27538 1315.97 9.37626 1316.18 10.5296C1316.18 10.6344 1316.18 10.7393 1316.18 10.8441C1316.18 10.8441 1316.23 10.8965 1316.34 11.0014C1316.34 11.1062 1316.34 11.2111 1316.34 11.3159C1316.34 11.3159 1316.34 11.3683 1316.34 11.4732C1316.34 11.578 1316.34 11.6829 1316.34 11.7877C1316.34 11.8926 1316.34 11.9974 1316.34 12.1023V100.488C1316.34 100.698 1316.34 100.907 1316.34 101.117C1316.34 101.222 1316.34 101.327 1316.34 101.432C1316.23 101.641 1316.18 101.798 1316.18 101.903C1316.18 102.008 1316.18 102.165 1316.18 102.375C1316.18 102.69 1316.13 103.004 1316.02 103.319C1316.02 103.528 1315.97 103.738 1315.86 103.948C1315.55 104.891 1315.13 105.783 1314.61 106.621C1314.08 107.46 1313.4 108.299 1312.56 109.138C1311.72 109.872 1310.67 110.448 1309.42 110.868C1308.26 111.182 1306.9 111.34 1305.33 111.34L1303.75 111.497H1291.02C1289.44 111.392 1288.03 111.182 1286.77 110.868C1285.62 110.448 1284.62 109.872 1283.78 109.138C1282.94 108.299 1282.21 107.46 1281.58 106.621C1281.06 105.783 1280.69 104.891 1280.48 103.948C1280.37 103.738 1280.27 103.528 1280.16 103.319C1280.06 103.004 1280.01 102.69 1280.01 102.375C1280.01 102.165 1280.01 102.008 1280.01 101.903C1280.01 101.798 1280.01 101.641 1280.01 101.432C1280.01 101.327 1280.01 101.222 1280.01 101.117C1280.01 100.907 1280.01 100.75 1280.01 100.645V11.945C1280.01 11.945 1280.01 11.8926 1280.01 11.7877C1280.01 11.6829 1280.01 11.578 1280.01 11.4732C1280.01 11.2635 1280.01 11.1062 1280.01 11.0014C1280.01 10.7917 1280.06 10.6344 1280.16 10.5296C1280.37 9.37626 1280.79 8.27538 1281.42 7.22691C1282.05 6.0736 1282.89 4.97271 1283.94 3.92424C1285.09 2.87578 1286.25 2.08943 1287.4 1.5652C1288.55 1.04097 1289.76 0.77885 1291.02 0.77885L1292.59 0.621582ZM1300.29 15.2477C1300.29 14.9331 1300.24 14.6186 1300.14 14.304C1300.03 13.9895 1299.88 13.7798 1299.67 13.675C1299.46 13.4653 1299.19 13.308 1298.88 13.2032C1298.67 13.0983 1298.41 12.9935 1298.09 12.8886C1297.78 12.9935 1297.46 13.0983 1297.15 13.2032C1296.94 13.308 1296.73 13.4653 1296.52 13.675C1296.31 13.7798 1296.15 13.9895 1296.05 14.304C1295.94 14.6186 1295.89 14.9856 1295.89 15.4049V97.1852C1295.89 97.7095 1295.94 98.1288 1296.05 98.4434C1296.15 98.6531 1296.31 98.8628 1296.52 99.0725C1296.73 99.2822 1296.94 99.4919 1297.15 99.7015C1297.36 99.8064 1297.62 99.9112 1297.94 100.016C1298.25 99.9112 1298.51 99.8064 1298.72 99.7015C1299.04 99.4919 1299.3 99.2822 1299.51 99.0725C1299.72 98.8628 1299.88 98.6531 1299.98 98.4434C1300.19 98.1288 1300.29 97.7619 1300.29 97.3425V15.2477Z" fill="white"/>
<path d="M1336.38 1.5652V99.5443H1345.5V111.182H1320.65V1.5652H1336.38Z" fill="white"/>
<path d="M1363.2 1.5652V99.5443H1372.32V111.182H1347.47V1.5652H1363.2Z" fill="white"/>
<path d="M1390.02 44.8144H1398.99V56.2951H1390.02V99.5443H1399.15V111.182H1374.3V1.5652H1398.99V13.2032H1390.02V44.8144Z" fill="white"/>
<path d="M1400.96 11.945C1400.96 10.582 1401.22 9.27141 1401.75 8.01326C1402.38 6.65025 1403.22 5.3921 1404.26 4.23879C1405.42 3.08547 1406.62 2.2467 1407.88 1.72247C1409.14 1.09339 1410.56 0.77885 1412.13 0.77885L1413.7 0.621582H1426.28C1427.75 0.726427 1429.11 1.09339 1430.37 1.72247C1431.73 2.2467 1432.94 3.08547 1433.99 4.23879C1435.14 5.28725 1435.98 6.49299 1436.5 7.85599C1437.13 9.21899 1437.45 10.6344 1437.45 12.1023V37.8945H1421.56V15.2477C1421.56 14.9331 1421.46 14.6186 1421.25 14.304C1421.14 13.9895 1420.99 13.7274 1420.78 13.5177C1420.57 13.308 1420.31 13.1507 1419.99 13.0459C1419.78 12.941 1419.52 12.8362 1419.21 12.7313C1418.89 12.8362 1418.58 12.941 1418.26 13.0459C1417.95 13.1507 1417.68 13.308 1417.48 13.5177C1417.27 13.7274 1417.11 13.9895 1417 14.304C1416.9 14.6186 1416.85 14.9856 1416.85 15.4049V97.1852C1416.85 97.7095 1416.9 98.1288 1417 98.4434C1417.11 98.7579 1417.27 99.02 1417.48 99.2297C1417.68 99.4394 1417.95 99.6491 1418.26 99.8588C1418.58 99.9637 1418.89 100.016 1419.21 100.016C1419.52 99.9112 1419.78 99.8064 1419.99 99.7015C1420.31 99.4919 1420.57 99.2822 1420.78 99.0725C1420.99 98.8628 1421.14 98.6531 1421.25 98.4434C1421.46 98.1288 1421.56 97.8143 1421.56 97.4998V64.0013H1437.45V101.746C1437.45 103.214 1437.19 104.524 1436.66 105.678C1436.14 106.726 1435.35 107.722 1434.3 108.666C1433.25 109.61 1432.1 110.291 1430.84 110.71C1429.58 111.13 1428.17 111.34 1426.6 111.34L1425.02 111.497H1411.5C1411.39 111.392 1411.29 111.34 1411.18 111.34C1411.08 111.34 1410.97 111.34 1410.87 111.34C1410.76 111.34 1410.66 111.34 1410.56 111.34C1410.45 111.34 1410.35 111.34 1410.24 111.34C1409.09 111.235 1407.93 110.973 1406.78 110.553C1405.73 110.134 1404.74 109.505 1403.79 108.666C1402.85 107.827 1402.12 106.936 1401.59 105.992C1401.17 104.944 1400.96 103.895 1400.96 102.847V11.945Z" fill="white"/>
<path d="M1446.01 13.2032H1439.25V1.5652H1468.66V13.2032H1461.89V111.182H1446.01V13.2032Z" fill="white"/>
</svg>
