<svg width="630" height="112" viewBox="0 0 600 112" fill="none" xmlns="http://www.w3.org/2000/svg">
<path d="M0 11.5208C0 10.1578 0.262116 8.84722 0.786349 7.58907C1.41543 6.22606 2.2542 4.9679 3.30267 3.81459C4.45598 2.66128 5.66171 1.8225 6.91987 1.29827C8.17803 0.669194 9.59346 0.354655 11.1662 0.354655L12.7389 0.197388H25.3204C26.7883 0.302233 28.1513 0.669194 29.4095 1.29827C30.7725 1.8225 31.9782 2.66128 33.0267 3.81459C34.18 4.86306 35.0187 6.06879 35.543 7.4318C36.1721 8.7948 36.4866 10.2102 36.4866 11.6781V37.4703H20.6023V14.8235C20.6023 14.5089 20.4975 14.1944 20.2878 13.8799C20.183 13.5653 20.0257 13.3032 19.816 13.0935C19.6063 12.8838 19.3442 12.7265 19.0296 12.6217C18.82 12.5169 18.5578 12.412 18.2433 12.3072C17.9288 12.412 17.6142 12.5169 17.2997 12.6217C16.9851 12.7265 16.723 12.8838 16.5133 13.0935C16.3036 13.3032 16.1464 13.5653 16.0415 13.8799C15.9367 14.1944 15.8842 14.5614 15.8842 14.9807V96.761C15.8842 97.2853 15.9367 97.7047 16.0415 98.0192C16.1464 98.3337 16.3036 98.5958 16.5133 98.8055C16.723 99.0152 16.9851 99.2249 17.2997 99.4346C17.6142 99.5395 17.9288 99.5919 18.2433 99.5919C18.5578 99.487 18.82 99.3822 19.0296 99.2774C19.3442 99.0677 19.6063 98.858 19.816 98.6483C20.0257 98.4386 20.183 98.2289 20.2878 98.0192C20.4975 97.7047 20.6023 97.3901 20.6023 97.0756V63.5771H36.4866V101.322C36.4866 102.79 36.2245 104.1 35.7002 105.254C35.176 106.302 34.3897 107.298 33.3412 108.242C32.2927 109.185 31.1394 109.867 29.8813 110.286C28.6231 110.706 27.2077 110.915 25.635 110.915L24.0623 111.073H10.5371C10.4322 110.968 10.3274 110.915 10.2225 110.915C10.1177 110.915 10.0128 110.915 9.908 110.915C9.80315 110.915 9.6983 110.915 9.59346 110.915C9.48861 110.915 9.38376 110.915 9.27892 110.915C8.12561 110.81 6.97229 110.548 5.81898 110.129C4.77052 109.71 3.77448 109.08 2.83086 108.242C1.88724 107.403 1.15331 106.512 0.629079 105.568C0.209693 104.52 0 103.471 0 102.423V11.5208Z" fill="white"/>
<path d="M53.3838 0.197388H65.9654C67.2235 0.302233 68.4293 0.616771 69.5826 1.141C70.8408 1.66524 71.9941 2.45158 73.0425 3.50005C74.1958 4.54851 75.087 5.6494 75.7161 6.80272C76.3452 7.85118 76.7646 8.95207 76.9743 10.1054C76.9743 10.2102 76.9743 10.3151 76.9743 10.4199C76.9743 10.4199 77.0267 10.4723 77.1315 10.5772C77.1315 10.682 77.1315 10.7869 77.1315 10.8917C77.1315 10.8917 77.1315 10.9442 77.1315 11.049C77.1315 11.1538 77.1315 11.2587 77.1315 11.3635C77.1315 11.4684 77.1315 11.5732 77.1315 11.6781V100.064C77.1315 100.273 77.1315 100.483 77.1315 100.693C77.1315 100.798 77.1315 100.902 77.1315 101.007C77.0267 101.217 76.9743 101.374 76.9743 101.479C76.9743 101.584 76.9743 101.741 76.9743 101.951C76.9743 102.265 76.9218 102.58 76.817 102.895C76.817 103.104 76.7646 103.314 76.6597 103.524C76.3452 104.467 75.9258 105.358 75.4016 106.197C74.8773 107.036 74.1958 107.875 73.3571 108.714C72.5183 109.447 71.4698 110.024 70.2117 110.444C69.0584 110.758 67.6954 110.915 66.1227 110.915L64.55 111.073H51.8111C50.2384 110.968 48.823 110.758 47.5648 110.444C46.4115 110.024 45.4155 109.447 44.5767 108.714C43.7379 107.875 43.004 107.036 42.3749 106.197C41.8507 105.358 41.4837 104.467 41.274 103.524C41.1692 103.314 41.0643 103.104 40.9595 102.895C40.8546 102.58 40.8022 102.265 40.8022 101.951C40.8022 101.741 40.8022 101.584 40.8022 101.479C40.8022 101.374 40.8022 101.217 40.8022 101.007C40.8022 100.902 40.8022 100.798 40.8022 100.693C40.8022 100.483 40.8022 100.326 40.8022 100.221V11.5208C40.8022 11.5208 40.8022 11.4684 40.8022 11.3635C40.8022 11.2587 40.8022 11.1538 40.8022 11.049C40.8022 10.8393 40.8022 10.682 40.8022 10.5772C40.8022 10.3675 40.8546 10.2102 40.9595 10.1054C41.1692 8.95207 41.5886 7.85118 42.2176 6.80272C42.8467 5.6494 43.6855 4.54851 44.734 3.50005C45.8873 2.45158 47.0406 1.66524 48.1939 1.141C49.3472 0.616771 50.5529 0.354655 51.8111 0.354655L53.3838 0.197388ZM61.09 14.8235C61.09 14.5089 61.0376 14.1944 60.9328 13.8799C60.8279 13.5653 60.6706 13.3556 60.4609 13.2508C60.2513 13.0411 59.9891 12.8838 59.6746 12.779C59.4649 12.6741 59.2028 12.5693 58.8882 12.4644C58.5737 12.5693 58.2592 12.6741 57.9446 12.779C57.7349 12.8838 57.5252 13.0411 57.3155 13.2508C57.1059 13.3556 56.9486 13.5653 56.8437 13.8799C56.7389 14.1944 56.6865 14.5614 56.6865 14.9807V96.761C56.6865 97.2853 56.7389 97.7047 56.8437 98.0192C56.9486 98.2289 57.1059 98.4386 57.3155 98.6483C57.5252 98.858 57.7349 99.0677 57.9446 99.2774C58.1543 99.3822 58.4164 99.487 58.731 99.5919C59.0455 99.487 59.3076 99.3822 59.5173 99.2774C59.8319 99.0677 60.094 98.858 60.3037 98.6483C60.5134 98.4386 60.6706 98.2289 60.7755 98.0192C60.9852 97.7047 61.09 97.3377 61.09 96.9183V14.8235Z" fill="white"/>
<path d="M97.1741 1.141V99.1201H106.296V110.758H81.4472V1.141H97.1741Z" fill="white"/>
<path d="M123.997 1.141V99.1201H133.118V110.758H108.27V1.141H123.997Z" fill="white"/>
<path d="M150.819 44.3902H159.783V55.8709H150.819V99.1201H159.941V110.758H135.092V1.141H159.783V12.779H150.819V44.3902Z" fill="white"/>
<path d="M161.757 11.5208C161.757 10.1578 162.019 8.84722 162.543 7.58907C163.173 6.22606 164.011 4.9679 165.06 3.81459C166.213 2.66128 167.419 1.8225 168.677 1.29827C169.935 0.669194 171.351 0.354655 172.923 0.354655L174.496 0.197388H187.078C188.545 0.302233 189.908 0.669194 191.167 1.29827C192.53 1.8225 193.735 2.66128 194.784 3.81459C195.937 4.86306 196.776 6.06879 197.3 7.4318C197.929 8.7948 198.244 10.2102 198.244 11.6781V37.4703H182.359V14.8235C182.359 14.5089 182.255 14.1944 182.045 13.8799C181.94 13.5653 181.783 13.3032 181.573 13.0935C181.363 12.8838 181.101 12.7265 180.787 12.6217C180.577 12.5169 180.315 12.412 180 12.3072C179.686 12.412 179.371 12.5169 179.057 12.6217C178.742 12.7265 178.48 12.8838 178.27 13.0935C178.061 13.3032 177.903 13.5653 177.799 13.8799C177.694 14.1944 177.641 14.5614 177.641 14.9807V96.761C177.641 97.2853 177.694 97.7047 177.799 98.0192C177.903 98.3337 178.061 98.5958 178.27 98.8055C178.48 99.0152 178.742 99.2249 179.057 99.4346C179.371 99.5395 179.686 99.5919 180 99.5919C180.315 99.487 180.577 99.3822 180.787 99.2774C181.101 99.0677 181.363 98.858 181.573 98.6483C181.783 98.4386 181.94 98.2289 182.045 98.0192C182.255 97.7047 182.359 97.3901 182.359 97.0756V63.5771H198.244V101.322C198.244 102.79 197.982 104.1 197.457 105.254C196.933 106.302 196.147 107.298 195.098 108.242C194.05 109.185 192.897 109.867 191.638 110.286C190.38 110.706 188.965 110.915 187.392 110.915L185.819 111.073H172.294C172.189 110.968 172.085 110.915 171.98 110.915C171.875 110.915 171.77 110.915 171.665 110.915C171.56 110.915 171.455 110.915 171.351 110.915C171.246 110.915 171.141 110.915 171.036 110.915C169.883 110.81 168.729 110.548 167.576 110.129C166.528 109.71 165.532 109.08 164.588 108.242C163.644 107.403 162.91 106.512 162.386 105.568C161.967 104.52 161.757 103.471 161.757 102.423V11.5208Z" fill="white"/>
<path d="M206.806 12.779H200.043V1.141H229.452V12.779H222.69V110.758H206.806V12.779Z" fill="white"/>
<path d="M265.943 43.9186H274.907V55.3993H265.943V98.6485H275.064V110.286H250.216V0.669444H274.907V12.3074H265.943V43.9186Z" fill="white"/>
<path d="M307.077 0.669444L314.783 110.286H299.842L298.427 86.0669H292.451L291.035 110.286H276.095L283.801 0.669444H307.077ZM295.439 27.248L293.08 73.7999H297.798L295.439 27.248Z" fill="white"/>
<path d="M345.622 0.197632C345.727 0.302477 345.779 0.3549 345.779 0.3549C345.884 0.3549 345.989 0.3549 346.094 0.3549C346.199 0.459751 346.251 0.512177 346.251 0.512177C346.356 0.512177 346.461 0.512177 346.565 0.512177C346.775 0.512177 346.932 0.512177 347.037 0.512177C347.247 0.512177 347.404 0.512177 347.509 0.512177C348.662 0.826712 349.711 1.29852 350.654 1.92761C351.703 2.55668 352.699 3.34303 353.643 4.28665C354.586 5.23027 355.268 6.27873 355.687 7.43204C356.211 8.58536 356.473 9.79109 356.473 11.0492V44.8623C356.473 45.0719 356.473 45.2292 356.473 45.3341C356.473 45.4389 356.473 45.5438 356.473 45.6486C356.369 45.8583 356.316 46.0156 356.316 46.1204C356.316 46.2253 356.316 46.3301 356.316 46.435C356.316 46.6446 356.264 46.8543 356.159 47.064C356.159 47.2737 356.107 47.4834 356.002 47.6931C355.792 48.5319 355.477 49.3707 355.058 50.2094C354.639 50.9433 354.167 51.6773 353.643 52.4112C353.118 53.1451 352.542 53.7742 351.913 54.2984C351.388 54.7178 350.812 55.0848 350.183 55.3993C350.812 55.8187 351.388 56.2905 351.913 56.8148C352.542 57.2341 353.066 57.7059 353.485 58.2302C354.01 58.7544 354.429 59.2787 354.743 59.8029C355.058 60.3271 355.373 60.8513 355.687 61.3756C355.897 61.6901 356.002 62.0047 356.002 62.3192C356.107 62.6337 356.211 62.9483 356.316 63.2628C356.316 63.3677 356.316 63.5249 356.316 63.7346C356.316 63.8395 356.369 63.9967 356.473 64.2064C356.473 64.3113 356.473 64.4686 356.473 64.6782C356.473 64.7831 356.473 64.8879 356.473 64.9928V110.286H340.589V64.521C340.589 64.2064 340.484 63.8919 340.275 63.5774C340.065 63.2628 339.75 63.0007 339.331 62.791C338.912 62.5813 338.387 62.424 337.758 62.3192C337.234 62.1095 336.605 62.0047 335.871 62.0047V110.286H319.987V0.197632H345.622ZM340.589 14.6665C340.589 14.2471 340.484 13.8801 340.275 13.5656C340.065 13.251 339.75 12.9889 339.331 12.7792C338.912 12.5695 338.44 12.4123 337.916 12.3074C337.391 12.2026 336.71 12.1501 335.871 12.1501V49.2658C335.976 49.3707 336.028 49.4231 336.028 49.4231C336.133 49.4231 336.238 49.4231 336.343 49.4231C336.448 49.4231 336.553 49.4231 336.657 49.4231C336.657 49.5279 336.657 49.5803 336.657 49.5803C336.762 49.5803 336.815 49.5803 336.815 49.5803C337.444 49.4755 337.968 49.3707 338.387 49.2658C338.912 49.0561 339.331 48.8464 339.646 48.6367C339.96 48.427 340.17 48.2173 340.275 48.0076C340.484 47.6931 340.589 47.3261 340.589 46.9068V14.6665Z" fill="white"/>
<path d="M376.831 0.669444L384.38 48.9513V0.669444H398.377V110.286H382.65L375.101 58.0729V110.286H361.104V0.669444H376.831Z" fill="white"/>
<path d="M425.942 12.3074H419.18V0.669444H448.589V12.3074H441.827V110.286H425.942V12.3074Z" fill="white"/>
<path d="M476.15 0.197632C476.255 0.302477 476.307 0.3549 476.307 0.3549C476.412 0.3549 476.517 0.3549 476.622 0.3549C476.727 0.459751 476.779 0.512177 476.779 0.512177C476.884 0.512177 476.989 0.512177 477.094 0.512177C477.303 0.512177 477.461 0.512177 477.565 0.512177C477.775 0.512177 477.932 0.512177 478.037 0.512177C479.191 0.826712 480.239 1.29852 481.183 1.92761C482.231 2.55668 483.227 3.34303 484.171 4.28665C485.114 5.23027 485.796 6.27873 486.215 7.43204C486.74 8.58536 487.002 9.79109 487.002 11.0492V44.8623C487.002 45.0719 487.002 45.2292 487.002 45.3341C487.002 45.4389 487.002 45.5438 487.002 45.6486C486.897 45.8583 486.844 46.0156 486.844 46.1204C486.844 46.2253 486.844 46.3301 486.844 46.435C486.844 46.6446 486.792 46.8543 486.687 47.064C486.687 47.2737 486.635 47.4834 486.53 47.6931C486.32 48.5319 486.006 49.3707 485.586 50.2094C485.167 50.9433 484.695 51.6773 484.171 52.4112C483.647 53.1451 483.07 53.7742 482.441 54.2984C481.917 54.7178 481.34 55.0848 480.711 55.3993C481.34 55.8187 481.917 56.2905 482.441 56.8148C483.07 57.2341 483.594 57.7059 484.013 58.2302C484.538 58.7544 484.957 59.2787 485.272 59.8029C485.586 60.3271 485.901 60.8513 486.215 61.3756C486.425 61.6901 486.53 62.0047 486.53 62.3192C486.635 62.6337 486.74 62.9483 486.844 63.2628C486.844 63.3677 486.844 63.5249 486.844 63.7346C486.844 63.8395 486.897 63.9967 487.002 64.2064C487.002 64.3113 487.002 64.4686 487.002 64.6782C487.002 64.7831 487.002 64.8879 487.002 64.9928V110.286H471.117V64.521C471.117 64.2064 471.013 63.8919 470.803 63.5774C470.593 63.2628 470.279 63.0007 469.859 62.791C469.44 62.5813 468.916 62.424 468.287 62.3192C467.762 62.1095 467.133 62.0047 466.399 62.0047V110.286H450.515V0.197632H476.15ZM471.117 14.6665C471.117 14.2471 471.013 13.8801 470.803 13.5656C470.593 13.251 470.279 12.9889 469.859 12.7792C469.44 12.5695 468.968 12.4123 468.444 12.3074C467.92 12.2026 467.238 12.1501 466.399 12.1501V49.2658C466.504 49.3707 466.557 49.4231 466.557 49.4231C466.661 49.4231 466.766 49.4231 466.871 49.4231C466.976 49.4231 467.081 49.4231 467.186 49.4231C467.186 49.5279 467.186 49.5803 467.186 49.5803C467.29 49.5803 467.343 49.5803 467.343 49.5803C467.972 49.4755 468.496 49.3707 468.916 49.2658C469.44 49.0561 469.859 48.8464 470.174 48.6367C470.488 48.427 470.698 48.2173 470.803 48.0076C471.013 47.6931 471.117 47.3261 471.117 46.9068V14.6665Z" fill="white"/>
<path d="M521.198 0.669444L528.905 110.286H513.964L512.549 86.0669H506.572L505.157 110.286H490.216L497.923 0.669444H521.198ZM509.561 27.248L507.201 73.7999H511.92L509.561 27.248Z" fill="white"/>
<path d="M557.699 0.197632C559.482 0.302477 561.107 0.669441 562.575 1.29852C564.147 1.9276 565.563 2.87122 566.821 4.12938C567.974 5.38754 568.865 6.75054 569.494 8.21839C570.123 9.68624 570.438 11.2065 570.438 12.7792V97.3904C570.438 99.2776 570.123 101.008 569.494 102.58C568.865 104.048 567.974 105.411 566.821 106.669C565.667 107.927 564.409 108.871 563.046 109.5C561.683 110.024 560.268 110.286 558.8 110.286H533.951V0.197632H557.699ZM554.396 14.6665C554.396 14.4568 554.292 14.1946 554.082 13.8801C553.872 13.5656 553.61 13.251 553.296 12.9365C552.981 12.7268 552.614 12.5695 552.195 12.4647C551.775 12.255 551.303 12.1501 550.779 12.1501L549.836 11.9929V98.6485H550.779C551.303 98.7534 551.775 98.7534 552.195 98.6485C552.719 98.5437 553.138 98.334 553.453 98.0194C553.767 97.7049 553.977 97.3904 554.082 97.0758C554.292 96.6564 554.396 96.2371 554.396 95.8177V14.6665Z" fill="white"/>
<path d="M590.481 43.9186H599.445V55.3993H590.481V98.6485H599.602V110.286H574.754V0.669444H599.445V12.3074H590.481V43.9186Z" fill="white"/>
</svg>
