<svg width="21" height="20" viewBox="0 0 21 20" fill="none" xmlns="http://www.w3.org/2000/svg">
<path d="M3 8.125H6.75V16.25H3C2.83424 16.25 2.67527 16.1842 2.55806 16.0669C2.44085 15.9497 2.375 15.7908 2.375 15.625V8.75C2.375 8.58424 2.44085 8.42527 2.55806 8.30806C2.67527 8.19085 2.83424 8.125 3 8.125V8.125Z" stroke="#7FC008" stroke-width="1.5" stroke-linecap="round" stroke-linejoin="round"/>
<path d="M6.75 8.125L9.875 1.875C10.538 1.875 11.1739 2.13839 11.6428 2.60723C12.1116 3.07607 12.375 3.71196 12.375 4.375V6.25H17.2109C17.3882 6.24956 17.5635 6.28706 17.725 6.35997C17.8866 6.43288 18.0306 6.53953 18.1476 6.67273C18.2645 6.80593 18.3516 6.96262 18.4029 7.13226C18.4543 7.3019 18.4687 7.48056 18.4453 7.65625L17.5078 15.1562C17.4699 15.4573 17.3237 15.7343 17.0966 15.9356C16.8695 16.1368 16.5769 16.2486 16.2734 16.25H6.75" stroke="#7FC008" stroke-width="1.5" stroke-linecap="round" stroke-linejoin="round"/>
</svg>
