<svg width="148" height="148" viewBox="0 0 148 148" fill="none" xmlns="http://www.w3.org/2000/svg">
<rect width="148" height="148" rx="41.1111" fill="#030303"/>
<path d="M40.084 62.708C40.084 50.2115 50.2144 40.0811 62.7109 40.0811V40.0811C66.4598 40.0811 69.499 43.1202 69.499 46.8691V94.2076C69.499 102.33 62.9142 108.915 54.7915 108.915V108.915C46.6688 108.915 40.084 102.33 40.084 94.2076V62.708Z" fill="#ECF962"/>
<path d="M77.5283 49.2604C77.5283 62.0106 87.8644 72.3467 100.615 72.3467V72.3467C104.44 72.3467 107.541 69.2458 107.541 65.4208V55.2501C107.541 46.9625 100.822 40.244 92.5344 40.244H84.9366C80.8451 40.244 77.5283 43.5609 77.5283 47.6523V49.2604Z" fill="#ECF962"/>
<circle r="15.0808" transform="matrix(1 0 0 -1 93.6335 93.8186)" fill="#ECF962"/>
</svg>
