<svg width="137" height="39" viewBox="0 0 137 39" fill="none" xmlns="http://www.w3.org/2000/svg">
<rect width="38.9408" height="38.9408" rx="10.8169" fill="#030303"/>
<path d="M10.5467 16.4995C10.5467 13.2115 13.2121 10.546 16.5001 10.546V10.546C17.4865 10.546 18.2862 11.3457 18.2862 12.3321V24.7874C18.2862 26.9246 16.5536 28.6572 14.4164 28.6572V28.6572C12.2792 28.6572 10.5467 26.9246 10.5467 24.7874V16.4995Z" fill="#ECF962"/>
<path d="M20.3988 12.9612C20.3988 16.316 23.1184 19.0355 26.4731 19.0355V19.0355C27.4796 19.0355 28.2954 18.2197 28.2954 17.2132V14.5372C28.2954 12.3566 26.5277 10.5889 24.3471 10.5889H22.348C21.2715 10.5889 20.3988 11.4616 20.3988 12.5381V12.9612Z" fill="#ECF962"/>
<circle r="3.96796" transform="matrix(1 0 0 -1 24.6364 24.6851)" fill="#ECF962"/>
<path d="M53.5117 27.1051C52.2684 27.1051 51.185 26.8106 50.2616 26.2216C49.3454 25.6254 48.6329 24.7747 48.1239 23.6695C47.6149 22.5643 47.3604 21.2373 47.3604 19.6886C47.3604 18.0889 47.6222 16.7474 48.1457 15.664C48.6765 14.5734 49.4036 13.7517 50.327 13.1991C51.2577 12.6393 52.3193 12.3593 53.5117 12.3593C55.1623 12.3593 56.4493 12.7592 57.3727 13.5591C58.3034 14.3589 58.8996 15.3986 59.1614 16.6783L56.4129 17.1801C56.1875 16.4384 55.8276 15.8385 55.3331 15.3805C54.8387 14.9224 54.2316 14.6933 53.5117 14.6933C52.8792 14.6933 52.3084 14.8788 51.7994 15.2496C51.2904 15.6131 50.8832 16.1657 50.5779 16.9074C50.2797 17.649 50.1307 18.5761 50.1307 19.6886C50.1307 20.7356 50.2616 21.6372 50.5233 22.3934C50.7924 23.1496 51.1777 23.7313 51.6794 24.1385C52.1811 24.5456 52.7919 24.7492 53.5117 24.7492C54.4352 24.7492 55.1477 24.5057 55.6494 24.0185C56.1584 23.5241 56.4129 22.8951 56.4129 22.1317H59.1614C59.1614 23.186 58.9323 24.0839 58.4742 24.8256C58.0234 25.56 57.3763 26.1235 56.5329 26.5161C55.6894 26.9087 54.6824 27.1051 53.5117 27.1051Z" fill="#030303"/>
<path d="M61.7525 26.7997V11.8358H64.3265V26.7997H61.7525Z" fill="#030303"/>
<path d="M75.0081 16.1766H77.5821V26.7997H75.0081V16.1766ZM67.7443 16.1766H70.3183V22.677C70.3183 23.3677 70.4892 23.8876 70.8309 24.2366C71.1727 24.5784 71.6416 24.7492 72.2379 24.7492C72.7468 24.7492 73.2086 24.6184 73.623 24.3566C74.0447 24.0876 74.3792 23.6949 74.6264 23.1787C74.8809 22.6552 75.0081 22.008 75.0081 21.2373H75.7062C75.7062 22.5316 75.5389 23.604 75.2045 24.4548C74.87 25.3055 74.4083 25.9417 73.8193 26.3634C73.2304 26.7851 72.5505 26.996 71.7798 26.996C71.0236 26.996 70.3401 26.8615 69.7294 26.5925C69.1186 26.3234 68.6351 25.8908 68.2788 25.2946C67.9225 24.6983 67.7443 23.9131 67.7443 22.9387V16.1766Z" fill="#030303"/>
<path d="M86.6118 27.1051C85.9501 27.1051 85.343 26.9197 84.7904 26.5488C84.245 26.178 83.8088 25.6254 83.4816 24.891C83.1544 24.1494 82.9908 23.2223 82.9908 22.1098H83.776C83.776 22.6406 83.896 23.106 84.136 23.5059C84.3759 23.9058 84.6849 24.2185 85.063 24.4439C85.4411 24.662 85.8337 24.7711 86.2409 24.7711C86.7426 24.7711 87.1898 24.6329 87.5824 24.3566C87.9751 24.0803 88.2841 23.6949 88.5095 23.2005C88.7422 22.7061 88.8585 22.1244 88.8585 21.4554C88.8585 20.8083 88.7458 20.2448 88.5204 19.7649C88.295 19.2778 87.9823 18.8997 87.5824 18.6306C87.1898 18.3616 86.7354 18.2271 86.2191 18.2271C85.7901 18.2271 85.3902 18.3325 85.0194 18.5434C84.6486 18.747 84.3468 19.0451 84.1141 19.4377C83.8887 19.8231 83.776 20.2921 83.776 20.8447H82.9908C82.9908 19.7758 83.1435 18.8742 83.4488 18.1398C83.7615 17.4055 84.2014 16.8529 84.7685 16.482C85.343 16.1039 86.0228 15.9149 86.8081 15.9149C87.6661 15.9149 88.4441 16.1439 89.1421 16.602C89.8474 17.0528 90.4073 17.6963 90.8217 18.5325C91.2434 19.3614 91.4543 20.3357 91.4543 21.4554C91.4543 22.5897 91.2362 23.5822 90.7999 24.4329C90.3709 25.2764 89.7892 25.9344 89.0548 26.407C88.3205 26.8724 87.5061 27.1051 86.6118 27.1051ZM81.2021 26.7997V11.8358H83.776V24.1821L82.8817 26.7997H81.2021Z" fill="#030303"/>
<path d="M94.1648 26.7997V12.6429H99.3999C101.094 12.6429 102.392 13.0392 103.294 13.8317C104.202 14.6243 104.657 15.6749 104.657 16.9837C104.657 18.2707 104.202 19.3105 103.294 20.103C102.392 20.8883 101.094 21.2809 99.3999 21.2809H96.7387V26.7997H94.1648ZM101.821 26.7997L98.0693 20.1685H100.818L105.18 26.7997H101.821ZM96.7387 19.5577H99.1382C100.083 19.5577 100.8 19.3432 101.287 18.9142C101.774 18.4779 102.018 17.9144 102.018 17.2237C102.018 16.5184 101.796 15.9512 101.352 15.5222C100.909 15.086 100.258 14.8679 99.3999 14.8679H96.7387V19.5577Z" fill="#030303"/>
<path d="M114.507 26.7997L114.18 24.2257V19.9721C114.18 19.2305 114.027 18.6815 113.721 18.3252C113.423 17.969 112.914 17.7908 112.195 17.7908C111.78 17.7908 111.42 17.8526 111.115 17.9762C110.809 18.0998 110.573 18.278 110.406 18.5107C110.246 18.7361 110.166 19.0124 110.166 19.3396H107.352C107.352 18.5397 107.545 17.889 107.93 17.3873C108.315 16.8783 108.868 16.5075 109.588 16.2748C110.315 16.0349 111.184 15.9149 112.195 15.9149C113.111 15.9149 113.911 16.0639 114.594 16.3621C115.277 16.6529 115.808 17.1037 116.186 17.7145C116.564 18.3252 116.754 19.1069 116.754 20.0594V26.7997H114.507ZM111.038 27.1051C110.13 27.1051 109.37 26.9487 108.759 26.6361C108.155 26.3162 107.701 25.8981 107.396 25.3818C107.09 24.8656 106.938 24.3057 106.938 23.7022C106.938 23.0333 107.112 22.4734 107.461 22.0226C107.817 21.5645 108.319 21.2228 108.966 20.9974C109.613 20.7647 110.377 20.6484 111.257 20.6484C111.831 20.6484 112.373 20.692 112.882 20.7792C113.398 20.8665 113.911 20.9828 114.42 21.1282V22.6334C114.02 22.5025 113.583 22.4007 113.111 22.328C112.638 22.2553 112.195 22.2189 111.78 22.2189C111.169 22.2189 110.668 22.3316 110.275 22.557C109.882 22.7824 109.686 23.1641 109.686 23.7022C109.686 24.0948 109.846 24.4329 110.166 24.7165C110.486 25.0001 110.995 25.1419 111.693 25.1419C112.224 25.1419 112.674 25.0255 113.045 24.7929C113.416 24.5602 113.696 24.2693 113.885 23.9203C114.081 23.5713 114.18 23.2223 114.18 22.8733H114.79C114.79 23.6368 114.649 24.3421 114.365 24.9892C114.081 25.629 113.66 26.1416 113.1 26.527C112.547 26.9124 111.86 27.1051 111.038 27.1051Z" fill="#030303"/>
<path d="M120.09 26.7997V16.1766H122.664V26.7997H120.09ZM122.031 22.1535C122.031 20.7647 122.188 19.6159 122.5 18.707C122.813 17.7981 123.231 17.1255 123.755 16.6893C124.286 16.2457 124.874 16.024 125.522 16.024C125.696 16.024 125.86 16.0349 126.012 16.0567C126.172 16.0785 126.329 16.1112 126.481 16.1548L126.438 18.7288C126.249 18.6852 126.045 18.6488 125.827 18.6197C125.609 18.5906 125.413 18.5761 125.238 18.5761C124.671 18.5761 124.195 18.7142 123.809 18.9905C123.431 19.2596 123.144 19.6595 122.948 20.1903C122.759 20.7211 122.664 21.3755 122.664 22.1535H122.031Z" fill="#030303"/>
<path d="M132.165 27.1051C131.264 27.1051 130.439 26.8724 129.69 26.407C128.941 25.9417 128.341 25.2909 127.89 24.4548C127.439 23.6113 127.214 22.6261 127.214 21.4991C127.214 20.3357 127.436 19.3359 127.879 18.4998C128.33 17.6636 128.93 17.0237 129.679 16.5802C130.428 16.1367 131.257 15.9149 132.165 15.9149C133.009 15.9149 133.736 16.0858 134.347 16.4275C134.965 16.762 135.459 17.22 135.83 17.8017C136.208 18.3761 136.463 19.0269 136.593 19.754C136.724 20.4811 136.732 21.23 136.615 22.0008H129.264V20.6047H134.794L134.292 20.9319C134.314 20.5902 134.296 20.2448 134.238 19.8958C134.187 19.5468 134.085 19.2269 133.932 18.936C133.78 18.6452 133.561 18.4125 133.278 18.238C133.002 18.0562 132.645 17.9653 132.209 17.9653C131.686 17.9653 131.242 18.0962 130.878 18.358C130.515 18.6197 130.239 18.976 130.05 19.4268C129.86 19.8776 129.766 20.3866 129.766 20.9537V21.979C129.766 22.5752 129.853 23.1023 130.028 23.5604C130.209 24.0185 130.475 24.3784 130.824 24.6402C131.18 24.9019 131.627 25.0328 132.165 25.0328C132.667 25.0328 133.089 24.9165 133.431 24.6838C133.772 24.4511 133.99 24.1021 134.085 23.6368H136.681C136.572 24.3202 136.314 24.9237 135.906 25.4473C135.506 25.9635 134.987 26.3707 134.347 26.6688C133.707 26.9596 132.98 27.1051 132.165 27.1051Z" fill="#030303"/>
</svg>
