<svg width="68" height="24" viewBox="0 0 68 24" fill="none" xmlns="http://www.w3.org/2000/svg">
<path d="M16.625 15.75L18.5 20.25L20.375 15.75" stroke="#4C4D4C" stroke-width="1.5" stroke-linecap="round" stroke-linejoin="round"/>
<path d="M8 19.7344C7.64117 20.0624 7.17366 20.2461 6.6875 20.25C5.54375 20.25 4.625 19.2469 4.625 18C4.625 16.7531 5.54375 15.75 6.6875 15.75C7.17366 15.7539 7.64117 15.9376 8 16.2656" stroke="#4C4D4C" stroke-width="1.5" stroke-linecap="round" stroke-linejoin="round"/>
<path d="M11 19.875C11.4063 20.1781 11.8994 20.3424 12.4062 20.3437C13.25 20.3437 14 20.0625 14 19.125C14 17.625 11 18.2812 11 16.875C11 16.125 11.5625 15.6562 12.4062 15.6562C12.9131 15.6576 13.4062 15.8219 13.8125 16.125" stroke="#4C4D4C" stroke-width="1.5" stroke-linecap="round" stroke-linejoin="round"/>
<path d="M5 12V3.75C5 3.55109 5.07902 3.36032 5.21967 3.21967C5.36032 3.07902 5.55109 3 5.75 3H14.75L20 8.25V12" stroke="#4C4D4C" stroke-width="1.5" stroke-linecap="round" stroke-linejoin="round"/>
<path d="M14.75 3V8.25H20" stroke="#4C4D4C" stroke-width="1.5" stroke-linecap="round" stroke-linejoin="round"/>
<path d="M29.724 16C29.644 16 29.576 15.972 29.52 15.916C29.464 15.86 29.436 15.792 29.436 15.712V7.9C29.436 7.812 29.464 7.74 29.52 7.684C29.576 7.628 29.644 7.6 29.724 7.6H35.004C35.092 7.6 35.164 7.628 35.22 7.684C35.276 7.74 35.304 7.812 35.304 7.9V8.692C35.304 8.772 35.276 8.84 35.22 8.896C35.164 8.952 35.092 8.98 35.004 8.98H31.056V11.104H34.74C34.828 11.104 34.9 11.132 34.956 11.188C35.012 11.236 35.04 11.304 35.04 11.392V12.136C35.04 12.224 35.012 12.296 34.956 12.352C34.9 12.4 34.828 12.424 34.74 12.424H31.056V14.62H35.1C35.188 14.62 35.26 14.648 35.316 14.704C35.372 14.76 35.4 14.832 35.4 14.92V15.712C35.4 15.792 35.372 15.86 35.316 15.916C35.26 15.972 35.188 16 35.1 16H29.724ZM36.4928 16C36.4208 16 36.3568 15.976 36.3008 15.928C36.2528 15.872 36.2288 15.808 36.2288 15.736C36.2288 15.712 36.2328 15.684 36.2408 15.652C36.2568 15.62 36.2808 15.58 36.3128 15.532L38.3528 12.796L36.4568 10.228C36.4328 10.188 36.4128 10.152 36.3968 10.12C36.3888 10.088 36.3848 10.056 36.3848 10.024C36.3848 9.952 36.4088 9.892 36.4568 9.844C36.5128 9.788 36.5768 9.76 36.6488 9.76H37.6928C37.7888 9.76 37.8608 9.784 37.9088 9.832C37.9568 9.88 37.9928 9.924 38.0168 9.964L39.3728 11.764L40.7288 9.964C40.7608 9.924 40.7968 9.88 40.8368 9.832C40.8848 9.784 40.9568 9.76 41.0528 9.76H42.0488C42.1208 9.76 42.1808 9.788 42.2288 9.844C42.2848 9.892 42.3128 9.948 42.3128 10.012C42.3128 10.052 42.3048 10.088 42.2888 10.12C42.2808 10.152 42.2648 10.188 42.2408 10.228L40.3208 12.82L42.3728 15.532C42.4048 15.58 42.4248 15.62 42.4328 15.652C42.4488 15.684 42.4568 15.712 42.4568 15.736C42.4568 15.808 42.4288 15.872 42.3728 15.928C42.3248 15.976 42.2648 16 42.1928 16H41.1008C41.0128 16 40.9448 15.98 40.8968 15.94C40.8488 15.892 40.8088 15.848 40.7768 15.808L39.3368 13.9L37.8728 15.808C37.8408 15.848 37.8008 15.892 37.7528 15.94C37.7128 15.98 37.6448 16 37.5488 16H36.4928ZM43.8303 18.28C43.7503 18.28 43.6823 18.252 43.6263 18.196C43.5703 18.14 43.5423 18.072 43.5423 17.992V10.048C43.5423 9.968 43.5703 9.9 43.6263 9.844C43.6823 9.788 43.7503 9.76 43.8303 9.76H44.7783C44.8663 9.76 44.9343 9.788 44.9823 9.844C45.0383 9.9 45.0663 9.968 45.0663 10.048V10.528C45.2583 10.272 45.5103 10.06 45.8223 9.892C46.1343 9.724 46.5223 9.64 46.9863 9.64C47.4103 9.64 47.7783 9.708 48.0903 9.844C48.4023 9.98 48.6623 10.176 48.8703 10.432C49.0783 10.68 49.2383 10.976 49.3503 11.32C49.4623 11.664 49.5263 12.044 49.5423 12.46C49.5503 12.596 49.5543 12.736 49.5543 12.88C49.5543 13.024 49.5503 13.168 49.5423 13.312C49.5343 13.712 49.4743 14.084 49.3623 14.428C49.2503 14.764 49.0863 15.06 48.8703 15.316C48.6623 15.564 48.4023 15.76 48.0903 15.904C47.7783 16.048 47.4103 16.12 46.9863 16.12C46.5543 16.12 46.1863 16.044 45.8823 15.892C45.5783 15.732 45.3303 15.524 45.1383 15.268V17.992C45.1383 18.072 45.1103 18.14 45.0543 18.196C45.0063 18.252 44.9383 18.28 44.8503 18.28H43.8303ZM46.5423 14.836C46.8863 14.836 47.1543 14.764 47.3463 14.62C47.5383 14.468 47.6743 14.272 47.7543 14.032C47.8423 13.792 47.8943 13.528 47.9103 13.24C47.9263 13 47.9263 12.76 47.9103 12.52C47.8943 12.232 47.8423 11.968 47.7543 11.728C47.6743 11.488 47.5383 11.296 47.3463 11.152C47.1543 11 46.8863 10.924 46.5423 10.924C46.2143 10.924 45.9463 11 45.7383 11.152C45.5383 11.304 45.3903 11.5 45.2943 11.74C45.2063 11.972 45.1543 12.212 45.1383 12.46C45.1303 12.604 45.1263 12.756 45.1263 12.916C45.1263 13.076 45.1303 13.232 45.1383 13.384C45.1463 13.624 45.2023 13.856 45.3063 14.08C45.4103 14.296 45.5623 14.476 45.7623 14.62C45.9623 14.764 46.2223 14.836 46.5423 14.836ZM53.6614 16.12C53.0214 16.12 52.4814 16.008 52.0414 15.784C51.6094 15.56 51.2774 15.244 51.0454 14.836C50.8214 14.428 50.6934 13.952 50.6614 13.408C50.6534 13.264 50.6494 13.088 50.6494 12.88C50.6494 12.672 50.6534 12.496 50.6614 12.352C50.6934 11.8 50.8254 11.324 51.0574 10.924C51.2974 10.516 51.6334 10.2 52.0654 9.976C52.5054 9.752 53.0374 9.64 53.6614 9.64C54.2854 9.64 54.8134 9.752 55.2454 9.976C55.6854 10.2 56.0214 10.516 56.2534 10.924C56.4934 11.324 56.6294 11.8 56.6614 12.352C56.6694 12.496 56.6734 12.672 56.6734 12.88C56.6734 13.088 56.6694 13.264 56.6614 13.408C56.6294 13.952 56.4974 14.428 56.2654 14.836C56.0414 15.244 55.7094 15.56 55.2694 15.784C54.8374 16.008 54.3014 16.12 53.6614 16.12ZM53.6614 14.932C54.0854 14.932 54.4134 14.8 54.6454 14.536C54.8774 14.264 55.0054 13.868 55.0294 13.348C55.0374 13.228 55.0414 13.072 55.0414 12.88C55.0414 12.688 55.0374 12.532 55.0294 12.412C55.0054 11.9 54.8774 11.508 54.6454 11.236C54.4134 10.964 54.0854 10.828 53.6614 10.828C53.2374 10.828 52.9094 10.964 52.6774 11.236C52.4454 11.508 52.3174 11.9 52.2934 12.412C52.2854 12.532 52.2814 12.688 52.2814 12.88C52.2814 13.072 52.2854 13.228 52.2934 13.348C52.3174 13.868 52.4454 14.264 52.6774 14.536C52.9094 14.8 53.2374 14.932 53.6614 14.932ZM58.2909 16C58.2109 16 58.1429 15.972 58.0869 15.916C58.0309 15.86 58.0029 15.792 58.0029 15.712V10.06C58.0029 9.972 58.0309 9.9 58.0869 9.844C58.1429 9.788 58.2109 9.76 58.2909 9.76H59.2629C59.3429 9.76 59.4109 9.788 59.4669 9.844C59.5309 9.9 59.5629 9.972 59.5629 10.06V10.552C59.7469 10.296 59.9829 10.1 60.2709 9.964C60.5669 9.828 60.9069 9.76 61.2909 9.76H61.7829C61.8709 9.76 61.9389 9.788 61.9869 9.844C62.0429 9.9 62.0709 9.968 62.0709 10.048V10.912C62.0709 10.992 62.0429 11.06 61.9869 11.116C61.9389 11.172 61.8709 11.2 61.7829 11.2H60.8469C60.4629 11.2 60.1629 11.308 59.9469 11.524C59.7389 11.74 59.6349 12.036 59.6349 12.412V15.712C59.6349 15.792 59.6069 15.86 59.5509 15.916C59.4949 15.972 59.4229 16 59.3349 16H58.2909ZM65.8268 16C65.3468 16 64.9428 15.916 64.6148 15.748C64.2868 15.58 64.0428 15.332 63.8828 15.004C63.7228 14.668 63.6428 14.252 63.6428 13.756V11.032H62.6948C62.6148 11.032 62.5468 11.004 62.4908 10.948C62.4348 10.892 62.4068 10.824 62.4068 10.744V10.048C62.4068 9.968 62.4348 9.9 62.4908 9.844C62.5468 9.788 62.6148 9.76 62.6948 9.76H63.6428V7.768C63.6428 7.688 63.6668 7.62 63.7148 7.564C63.7708 7.508 63.8428 7.48 63.9308 7.48H64.9028C64.9828 7.48 65.0508 7.508 65.1068 7.564C65.1628 7.62 65.1908 7.688 65.1908 7.768V9.76H66.6908C66.7708 9.76 66.8388 9.788 66.8948 9.844C66.9508 9.9 66.9788 9.968 66.9788 10.048V10.744C66.9788 10.824 66.9508 10.892 66.8948 10.948C66.8388 11.004 66.7708 11.032 66.6908 11.032H65.1908V13.636C65.1908 13.964 65.2468 14.22 65.3588 14.404C65.4788 14.588 65.6828 14.68 65.9708 14.68H66.7988C66.8788 14.68 66.9468 14.708 67.0028 14.764C67.0588 14.82 67.0868 14.888 67.0868 14.968V15.712C67.0868 15.792 67.0588 15.86 67.0028 15.916C66.9468 15.972 66.8788 16 66.7988 16H65.8268Z" fill="#4C4D4C"/>
</svg>
