<svg width="20" height="19" viewBox="0 0 20 19" fill="none" xmlns="http://www.w3.org/2000/svg">
<path d="M17.5 1.25H2.5C2.08579 1.25 1.75 1.58579 1.75 2V17C1.75 17.4142 2.08579 17.75 2.5 17.75H17.5C17.9142 17.75 18.25 17.4142 18.25 17V2C18.25 1.58579 17.9142 1.25 17.5 1.25Z" stroke="#202020" stroke-width="2" stroke-linecap="round" stroke-linejoin="round"/>
<path d="M18.25 12.4999L14.2844 8.53429C14.2146 8.46343 14.1314 8.40715 14.0397 8.36874C13.9479 8.33033 13.8495 8.31055 13.75 8.31055C13.6505 8.31055 13.5521 8.33033 13.4603 8.36874C13.3686 8.40715 13.2854 8.46343 13.2156 8.53429L9.03437 12.7155C8.96459 12.7864 8.8814 12.8427 8.78966 12.8811C8.69792 12.9195 8.59946 12.9393 8.5 12.9393C8.40054 12.9393 8.30208 12.9195 8.21034 12.8811C8.1186 12.8427 8.03541 12.7864 7.96563 12.7155L6.03437 10.7843C5.96459 10.7134 5.8814 10.6572 5.78966 10.6187C5.69792 10.5803 5.59946 10.5605 5.5 10.5605C5.40054 10.5605 5.30208 10.5803 5.21034 10.6187C5.1186 10.6572 5.03541 10.7134 4.96563 10.7843L1.75 13.9999" stroke="#202020" stroke-width="2" stroke-linecap="round" stroke-linejoin="round"/>
<path d="M7.375 7.25C7.99632 7.25 8.5 6.74632 8.5 6.125C8.5 5.50368 7.99632 5 7.375 5C6.75368 5 6.25 5.50368 6.25 6.125C6.25 6.74632 6.75368 7.25 7.375 7.25Z" fill="#202020"/>
</svg>
