<svg width="22" height="22" viewBox="0 0 22 22" fill="none" xmlns="http://www.w3.org/2000/svg">
<circle cx="11" cy="11" r="11" fill="#595959"/>
<g clip-path="url(#clip0_3789_1539)">
<path d="M8.04828 4.00418H8.45844C8.52954 4.02717 8.60608 4.02717 8.67719 4.00418H8.86859C9.04688 4.03645 9.22926 4.02277 9.40781 4.05887C9.9092 4.15829 10.3955 4.32274 10.8543 4.54805C10.8992 4.57358 10.9499 4.587 11.0015 4.587C11.0532 4.587 11.1039 4.57358 11.1488 4.54805C11.6152 4.3181 12.1103 4.15191 12.621 4.05395C12.7818 4.0225 12.9461 4.03672 13.1061 4.00391H13.3248C13.3959 4.0269 13.4725 4.0269 13.5436 4.00391H13.9264C14.1361 4.03672 14.3488 4.03508 14.5572 4.08867C15.2591 4.26941 15.8721 4.6082 16.4166 5.0848C16.637 5.27785 16.8284 5.49496 17.0296 5.70578C17.1341 5.81516 17.1267 5.8425 16.9801 5.9032C16.6771 6.02762 16.3684 6.13809 16.0581 6.2677C16.1426 6.3675 16.2495 6.43395 16.3414 6.51926C16.9131 7.05656 17.32 7.70078 17.594 8.43332C17.7785 8.9286 17.9032 9.44412 17.9656 9.96895C17.9828 10.112 17.9708 10.258 17.9989 10.4004V10.5098C17.9752 10.5341 17.9886 10.5645 17.985 10.5918V10.6457C17.9886 10.673 17.9752 10.7045 17.9989 10.7277V10.8098C17.9765 10.8716 17.9765 10.9393 17.9989 11.0012V11.384C17.9623 11.4302 17.9093 11.4433 17.8559 11.4559C17.6479 11.5054 17.4403 11.5582 17.2303 11.5981C17.1286 11.6172 17.0969 11.6528 17.1209 11.7621C17.2114 12.1432 17.2515 12.5344 17.2402 12.9259C17.2084 13.8436 16.9249 14.6734 16.3652 15.4068C15.955 15.9436 15.4371 16.3523 14.8711 16.7084C14.7789 16.7663 14.7144 16.751 14.6499 16.6673C14.5747 16.5703 14.5009 16.4721 14.4235 16.3767C14.3261 16.2569 14.3196 16.2545 14.2239 16.3709C13.9851 16.6581 13.7106 16.9137 13.4071 17.1314C12.831 17.5511 12.187 17.815 11.4909 17.9536C11.3612 17.9774 11.2294 17.9875 11.0977 17.9837H10.9041C10.4119 17.9867 9.95469 17.8303 9.50953 17.6443C8.83679 17.3684 8.242 16.9316 7.77731 16.3723C7.67996 16.2553 7.6734 16.2569 7.57715 16.3753C7.49676 16.474 7.42184 16.5771 7.34199 16.6761C7.28402 16.7483 7.22441 16.7661 7.14184 16.7157C6.02074 16.0297 5.18566 15.1191 4.87231 13.8045C4.71344 13.134 4.72465 12.4608 4.87039 11.7884C4.9043 11.6312 4.90238 11.6306 4.74406 11.5915C4.545 11.5429 4.34348 11.5059 4.14496 11.4548C4.09191 11.4411 4.03859 11.4288 4.00195 11.3826V10.9465C4.01292 10.9205 4.01857 10.8926 4.01857 10.8645C4.01857 10.8363 4.01292 10.8084 4.00195 10.7824V10.673C4.0252 10.6498 4.01262 10.6203 4.0159 10.5938V10.5437C4.01453 10.5224 4.02055 10.4991 4.00195 10.4819V10.3725C4.03258 9.99738 4.07168 9.62359 4.15836 9.25609C4.40637 8.20582 4.85945 7.26848 5.65871 6.52172C5.75554 6.43254 5.85704 6.34857 5.96277 6.27016C5.63274 6.15039 5.31008 6.01176 4.9825 5.8857C4.87969 5.84605 4.87777 5.81242 4.95297 5.7252C5.52363 5.06484 6.18152 4.52371 7.01359 4.22129C7.32668 4.10754 7.64633 4.02141 7.98293 4.01758C8.00754 4.01813 8.03105 4.02223 8.04828 4.00418Z" fill="#F6F6F6"/>
<path d="M8.67578 4.00391C8.64308 4.02468 8.60514 4.03571 8.56641 4.03571C8.52767 4.03571 8.48973 4.02468 8.45703 4.00391H8.67578Z" fill="#111111"/>
<path d="M13.543 4.00391C13.5103 4.02468 13.4723 4.03571 13.4336 4.03571C13.3949 4.03571 13.3569 4.02468 13.3242 4.00391H13.543Z" fill="#111111"/>
<path d="M11.1137 17.9746C11.1137 17.9823 11.1112 17.9899 11.1096 17.9973H10.8908C10.8892 17.9899 10.8878 17.9823 10.8867 17.9746H11.1137Z" fill="#6E6E6E"/>
<path d="M17.9971 11C17.9762 10.9725 17.9648 10.9389 17.9648 10.9043C17.9648 10.8697 17.9762 10.8361 17.9971 10.8086V11Z" fill="#0D0D0D"/>
<path d="M4.00391 10.7812C4.02392 10.8039 4.03496 10.8331 4.03496 10.8633C4.03496 10.8935 4.02392 10.9227 4.00391 10.9453V10.7812Z" fill="#141414"/>
<path d="M17.9733 10.5902C17.9758 10.5628 17.9509 10.5254 17.9966 10.5098V10.5918C17.9878 10.6036 17.9802 10.6025 17.9733 10.5902Z" fill="#898989"/>
<path d="M4.0277 10.5909C4.03098 10.6217 4.03918 10.6543 4.00391 10.6729V10.5909C4.01047 10.5794 4.0184 10.5788 4.0277 10.5909Z" fill="#5C5C5C"/>
<path d="M17.9962 10.7273C17.9609 10.7078 17.9689 10.675 17.9711 10.6452C17.9801 10.634 17.9883 10.6337 17.9962 10.6452V10.7273Z" fill="#454545"/>
<path d="M4.00391 10.4805C4.03809 10.4868 4.02988 10.5116 4.02687 10.5352C4.01977 10.5486 4.01211 10.5483 4.00391 10.5352V10.4805Z" fill="#999999"/>
<path d="M4.00277 10.5352H4.02574V10.5898C4.01782 10.5904 4.00987 10.5904 4.00195 10.5898L4.00277 10.5352Z" fill="#7E7E7E"/>
<path d="M17.9959 10.6445H17.9833H17.9707C17.9707 10.6262 17.9707 10.6076 17.9726 10.5898C17.9803 10.5898 17.9882 10.5898 17.9959 10.5912V10.6445Z" fill="#606060"/>
<path d="M8.19308 6.23173L6.39933 5.52407C6.80046 5.21864 7.23113 5.00454 7.71183 4.9061C8.85726 4.67177 9.90097 4.95696 10.8788 5.55005C10.9671 5.60474 11.0242 5.61294 11.1175 5.55388C11.8766 5.07317 12.7034 4.8156 13.6058 4.82462C14.3186 4.83228 14.9617 5.05814 15.5376 5.47677C15.5554 5.48962 15.571 5.50575 15.5948 5.52681L13.83 6.22435C14.0928 6.31185 14.3222 6.3988 14.5603 6.46579C15.321 6.68153 15.8778 7.1636 16.3139 7.80099C16.75 8.43837 16.9835 9.15806 17.0937 9.91821C17.1276 10.152 17.1386 10.3893 17.1676 10.624C17.1782 10.7112 17.1525 10.741 17.0669 10.759C16.7292 10.8307 16.3943 10.9146 16.0552 10.9868C15.9685 11.0051 15.9571 11.0295 15.9937 11.1082C16.197 11.536 16.3226 11.9965 16.3648 12.4683C16.4628 13.6309 16.0811 14.6045 15.2196 15.3889C15.1291 15.4709 15.0367 15.6112 14.9344 15.6024C14.8321 15.5937 14.7758 15.4326 14.7001 15.338C14.5407 15.139 14.3862 14.9363 14.2292 14.7365C14.2209 14.729 14.2117 14.7225 14.2019 14.717C14.1529 14.8207 14.1034 14.9224 14.0567 15.0255C13.5552 16.1288 12.6695 16.7498 11.5298 17.073C10.8848 17.2562 10.3037 17.0686 9.73882 16.8108C8.92179 16.4361 8.29917 15.8513 7.93741 15.0121C7.89777 14.9205 7.85156 14.8316 7.80808 14.7419C7.80123 14.7322 7.79354 14.723 7.78511 14.7146C7.56909 14.9924 7.35253 15.2672 7.14116 15.5458C7.09058 15.6125 7.06077 15.6279 6.98585 15.5688C5.58257 14.475 5.33566 12.8257 5.88472 11.3992C5.92204 11.2966 5.96495 11.1962 6.01323 11.0984C6.05398 11.0196 6.02308 11.0029 5.95171 10.9871C5.60991 10.9124 5.26812 10.8329 4.92769 10.7566C4.873 10.7443 4.82378 10.7429 4.82843 10.6609C4.87874 9.76591 5.04718 8.9013 5.49124 8.10997C5.82593 7.51552 6.27218 7.02579 6.87484 6.69247C7.19558 6.51501 7.55843 6.45212 7.89968 6.32853C7.98937 6.29544 8.08069 6.26974 8.19308 6.23173Z" fill="#595959"/>
<path d="M15.4495 9.63917C15.4361 10.2785 15.258 10.7786 14.8867 11.2032C14.75 11.361 14.6045 11.5136 14.453 11.658C14.3789 11.7288 14.38 11.7829 14.4232 11.8674C14.537 12.0889 14.6663 12.3066 14.6893 12.5628C14.744 13.1706 14.452 13.6292 14.0418 14.0303C13.9372 14.1391 13.8121 14.2262 13.6738 14.2865C13.5275 14.345 13.4446 14.4487 13.3768 14.5824C13.2822 14.7686 13.1777 14.9501 13.0719 15.1292C12.7711 15.643 12.1928 15.8949 11.6325 15.6972C11.2169 15.5512 10.8412 15.5525 10.4256 15.6972C9.86367 15.8935 9.28863 15.6425 8.98731 15.1257C8.86125 14.91 8.74121 14.6909 8.62172 14.4714C8.58785 14.4082 8.53413 14.358 8.46887 14.3284C7.89848 14.0423 7.53918 13.581 7.3866 12.9655C7.31305 12.6713 7.37621 12.388 7.5091 12.1179C7.56899 11.9959 7.68547 11.8636 7.66824 11.7531C7.65102 11.6426 7.50418 11.5461 7.40574 11.4523C7.0459 11.1026 6.77684 10.7017 6.66746 10.203C6.56848 9.74882 6.62453 9.30858 6.75824 8.87108C6.95867 8.19485 7.35141 7.59149 7.88863 7.13448C8.53996 6.57749 9.28918 6.44241 10.1128 6.63655C10.3958 6.703 10.6815 6.76206 10.9686 6.80608C11.16 6.83534 11.3438 6.7514 11.5308 6.71995C11.7952 6.67511 12.0564 6.6073 12.3219 6.57366C13.0681 6.47933 13.7148 6.70573 14.2619 7.21597C14.9876 7.89327 15.3784 8.72944 15.4495 9.63917Z" fill="#F6F6F6"/>
<path d="M11.438 12.7321C11.438 12.6047 11.4058 12.4653 11.4473 12.3529C11.4889 12.2405 11.6511 12.2454 11.753 12.1825C12.1905 11.9127 12.4366 11.5293 12.4815 11.0158C12.4886 10.9378 12.4692 10.9149 12.3896 10.9168C12.1802 10.9223 11.9705 10.9223 11.7607 10.9168C11.683 10.9146 11.6647 10.9441 11.6541 11.015C11.6311 11.1643 11.5555 11.3005 11.4409 11.399C11.3264 11.4975 11.1803 11.5518 11.0292 11.552C10.8781 11.5523 10.7319 11.4985 10.617 11.4004C10.5021 11.3024 10.426 11.1664 10.4025 11.0171C10.3905 10.9332 10.3673 10.9149 10.2888 10.9168C10.0837 10.9223 9.87864 10.9239 9.67383 10.9168C9.58387 10.9135 9.56664 10.9441 9.57539 11.0245C9.64102 11.6261 9.95547 12.0447 10.5114 12.2769C10.5934 12.3108 10.6224 12.3428 10.6194 12.4297C10.6128 12.6345 10.6142 12.8399 10.6194 13.0444C10.6213 13.1188 10.6024 13.1571 10.5275 13.1811C10.0919 13.3247 9.6577 13.4737 9.22403 13.6211C9.05067 13.6802 8.89262 13.6367 8.74196 13.5486C8.46852 13.3892 8.30199 13.1459 8.19918 12.8544C8.15434 12.7269 8.18387 12.6039 8.24266 12.4855C8.37336 12.2211 8.50024 11.9545 8.6345 11.6925C8.67141 11.6209 8.66731 11.5774 8.60879 11.5184C8.35887 11.2662 8.11387 11.0087 7.86832 10.7527C7.47758 10.345 7.35782 9.86707 7.48797 9.31855C7.60668 8.80193 7.86161 8.32653 8.22625 7.94179C8.67907 7.46082 9.2202 7.27871 9.87071 7.42664C10.212 7.50402 10.5576 7.56336 10.8997 7.63609C11.0963 7.6782 11.2767 7.60328 11.4627 7.57156C11.7908 7.51687 12.1132 7.43922 12.441 7.39C12.8531 7.32793 13.2304 7.43785 13.5542 7.69488C14.1508 8.16875 14.5006 8.79164 14.6091 9.54414C14.6725 9.98464 14.5361 10.3735 14.2372 10.6994C13.9818 10.978 13.7177 11.2477 13.4511 11.517C13.3939 11.575 13.386 11.6179 13.4238 11.6912C13.5566 11.9496 13.6791 12.2132 13.8101 12.4727C13.8525 12.5509 13.8747 12.6384 13.8747 12.7274C13.8747 12.8163 13.8525 12.9039 13.8101 12.9821C13.6543 13.2946 13.4475 13.5486 13.0896 13.6383C13.0097 13.6583 12.9256 13.6544 12.8479 13.6271C12.4104 13.4774 11.9718 13.3291 11.5321 13.1819C11.4629 13.159 11.4277 13.1292 11.4348 13.0485C11.4435 12.9446 11.437 12.8391 11.437 12.7343L11.438 12.7321Z" fill="#595959"/>
<path d="M9.51953 14.3955L10.9688 13.9034C11.0168 13.8892 11.0684 13.8922 11.1145 13.9118C11.5561 14.063 11.9974 14.2145 12.4407 14.3605C12.5304 14.3901 12.5334 14.4188 12.4893 14.4973C12.223 14.975 12.1339 15.0346 11.6253 14.8402C11.217 14.6835 10.8356 14.6594 10.4405 14.8456C10.3716 14.8782 10.2934 14.8916 10.2193 14.9126C9.98356 14.9791 9.81211 14.9107 9.68824 14.6991C9.63438 14.6058 9.58324 14.5098 9.51953 14.3955Z" fill="#595959"/>
<path d="M9.35936 9.65896C9.35936 9.76834 9.35553 9.87771 9.36073 9.98709C9.36401 10.056 9.34596 10.0814 9.27186 10.0798C9.05311 10.0751 8.83436 10.0765 8.61561 10.0798C8.55791 10.0798 8.53631 10.0656 8.53713 10.0043C8.54041 9.77682 8.54041 9.54895 8.53713 9.32072C8.53713 9.26357 8.54971 9.24115 8.61205 9.24225C8.83518 9.2458 9.0583 9.24662 9.28116 9.24225C9.35471 9.24061 9.361 9.27342 9.35936 9.33166C9.35772 9.44049 9.35936 9.54986 9.35936 9.65896Z" fill="#F6F6F6"/>
<path d="M13.4602 9.66337C13.4602 9.77275 13.4555 9.88212 13.4618 9.9915C13.4662 10.0664 13.4377 10.0817 13.3688 10.0806C13.155 10.0765 12.9409 10.0757 12.7271 10.0806C12.6519 10.0823 12.6374 10.0549 12.6388 9.98712C12.6423 9.76837 12.6434 9.54962 12.6388 9.33087C12.6371 9.25568 12.6634 9.24091 12.732 9.24228C12.9458 9.24611 13.1599 9.2472 13.3738 9.24228C13.4495 9.24037 13.4651 9.26771 13.4621 9.3358C13.4558 9.44462 13.4602 9.554 13.4602 9.66337Z" fill="#F6F6F6"/>
</g>
<defs>
<clipPath id="clip0_3789_1539">
<rect width="14" height="14" fill="white" transform="translate(4 4)"/>
</clipPath>
</defs>
</svg>
