<svg width="32" height="33" viewBox="0 0 32 33" fill="none" xmlns="http://www.w3.org/2000/svg">
<path d="M27 10.75H5C4.44772 10.75 4 11.1977 4 11.75V15.75C4 16.3023 4.44772 16.75 5 16.75H27C27.5523 16.75 28 16.3023 28 15.75V11.75C28 11.1977 27.5523 10.75 27 10.75Z" fill="#ECF962" stroke="#202020" stroke-width="2" stroke-linecap="round" stroke-linejoin="round"/>
<path d="M26 16.75V25.75C26 26.0152 25.8946 26.2696 25.7071 26.4571C25.5196 26.6446 25.2652 26.75 25 26.75H7C6.73478 26.75 6.48043 26.6446 6.29289 26.4571C6.10536 26.2696 6 26.0152 6 25.75V16.75" stroke="#202020" stroke-width="2" stroke-linecap="round" stroke-linejoin="round"/>
<path d="M16 10.75V26.75" stroke="#202020" stroke-width="2" stroke-linecap="round" stroke-linejoin="round"/>
<path d="M21.6625 9.33723C20.2375 10.7497 16 10.7497 16 10.7497C16 10.7497 16 6.51224 17.4125 5.08724C17.9761 4.52365 18.7405 4.20703 19.5375 4.20703C20.3345 4.20703 21.0989 4.52365 21.6625 5.08724C22.2261 5.65082 22.5427 6.41521 22.5427 7.21224C22.5427 8.00926 22.2261 8.77365 21.6625 9.33723V9.33723Z" stroke="#202020" stroke-width="2" stroke-linecap="round" stroke-linejoin="round"/>
<path d="M10.3372 9.33723C11.7622 10.7497 15.9997 10.7497 15.9997 10.7497C15.9997 10.7497 15.9997 6.51224 14.5872 5.08724C14.0236 4.52365 13.2593 4.20703 12.4622 4.20703C11.6652 4.20703 10.9008 4.52365 10.3372 5.08724C9.77365 5.65082 9.45703 6.41521 9.45703 7.21224C9.45703 8.00926 9.77365 8.77365 10.3372 9.33723V9.33723Z" stroke="#202020" stroke-width="2" stroke-linecap="round" stroke-linejoin="round"/>
</svg>
