<svg width="42" height="43" viewBox="0 0 42 43" fill="none" xmlns="http://www.w3.org/2000/svg">
<path d="M11.1562 18.0918L8.85938 12.8418L9.1875 11.5293L11.1562 8.57617L15.0938 5.95117L20.0156 5.29492L25.2656 6.2793L26.5781 8.24805L25.9219 10.2168L24.6094 12.1855L20.3438 14.8105L16.4062 15.4668L14.4375 16.7793L12.7969 19.4043L11.1562 18.0918Z" fill="#EAFB06"/>
<path d="M18.375 28.2637L21 22.6855L21.6562 22.0293L25.5938 22.3574L29.2031 24.3262L34.7812 28.2637L34.4531 30.2324L31.5 32.5L27 34.5L22.9688 36.7949L21.3281 35.8105L21.9844 33.5137L20.0156 30.8887L18.375 28.2637Z" fill="#EAFB06"/>
<path d="M35.1428 28.0011L26.2342 22.5214C26.0809 22.4228 25.9068 22.361 25.7256 22.3409L21.9686 21.8323C21.6883 21.7921 21.4026 21.8459 21.1561 21.9855C20.9097 22.125 20.7166 22.3423 20.6069 22.6034L18.3592 27.6401C18.2536 27.8744 18.219 28.1346 18.2598 28.3883C18.3007 28.642 18.4151 28.8782 18.5889 29.0675L21.6733 32.398C21.8127 32.5512 21.9149 32.7346 21.9718 32.9338C22.0287 33.133 22.0388 33.3426 22.0014 33.5464L21.3616 36.7948" stroke="#EAFB06" stroke-width="3" stroke-linecap="round" stroke-linejoin="round"/>
<path d="M21 36.7949C29.6985 36.7949 36.75 29.7434 36.75 21.0449C36.75 12.3464 29.6985 5.29492 21 5.29492C12.3015 5.29492 5.25 12.3464 5.25 21.0449C5.25 29.7434 12.3015 36.7949 21 36.7949Z" stroke="#EAFB06" stroke-width="3" stroke-linecap="round" stroke-linejoin="round"/>
<path d="M10.6634 9.16699L9.18684 12.6451C9.05822 12.9539 9.05236 13.3001 9.17043 13.6131L11.0571 18.6334C11.1309 18.8426 11.2571 19.0295 11.4237 19.176C11.5903 19.3225 11.7917 19.4238 12.0087 19.4701L15.5196 20.2248C15.7145 20.2642 15.8975 20.3485 16.0542 20.4709C16.2108 20.5934 16.3367 20.7507 16.422 20.9303L17.0454 22.2264C17.1562 22.4455 17.3248 22.6302 17.5331 22.7603C17.7413 22.8904 17.9812 22.9611 18.2267 22.9646H20.4415" stroke="#EAFB06" stroke-width="3" stroke-linecap="round" stroke-linejoin="round"/>
<path d="M25.0198 5.80377L26.5456 8.56002C26.6864 8.81915 26.7371 9.11778 26.6896 9.40887C26.6421 9.69996 26.499 9.96697 26.2831 10.1678L21.8698 14.1546C21.7959 14.2251 21.7132 14.2858 21.6237 14.335L19.6057 15.4506C19.4134 15.5527 19.2 15.6089 18.9823 15.6147H15.4714C15.2127 15.616 14.9601 15.6928 14.7444 15.8356C14.5288 15.9784 14.3595 16.181 14.2573 16.4186L12.8956 19.6506" stroke="#EAFB06" stroke-width="3" stroke-linecap="round" stroke-linejoin="round"/>
</svg>
