<svg width="21" height="20" viewBox="0 0 21 20" fill="none" xmlns="http://www.w3.org/2000/svg">
<path d="M5.13287 3.125H15.8672C15.9912 3.12521 16.1122 3.16225 16.2151 3.23143C16.3179 3.30061 16.3978 3.3988 16.4447 3.51352C16.4916 3.62824 16.5034 3.75431 16.4784 3.87571C16.4535 3.9971 16.393 4.10835 16.3047 4.19531L10.5001 10L4.69537 4.19531C4.60707 4.10835 4.54661 3.9971 4.52168 3.87571C4.49676 3.75431 4.50849 3.62824 4.55538 3.51352C4.60227 3.3988 4.68221 3.30061 4.78504 3.23143C4.88786 3.16225 5.00894 3.12521 5.13287 3.125V3.125Z" stroke="#B2B3B0" stroke-width="1.5" stroke-linecap="round" stroke-linejoin="round"/>
<path d="M5.13287 16.875H15.8672C15.9912 16.8748 16.1122 16.8377 16.2151 16.7686C16.3179 16.6994 16.3978 16.6012 16.4447 16.4865C16.4916 16.3718 16.5034 16.2457 16.4784 16.1243C16.4535 16.0029 16.393 15.8916 16.3047 15.8047L10.5001 10L4.69537 15.8047C4.60707 15.8916 4.54661 16.0029 4.52168 16.1243C4.49676 16.2457 4.50849 16.3718 4.55538 16.4865C4.60227 16.6012 4.68221 16.6994 4.78504 16.7686C4.88786 16.8377 5.00894 16.8748 5.13287 16.875Z" stroke="#B2B3B0" stroke-width="1.5" stroke-linecap="round" stroke-linejoin="round"/>
<path d="M6.125 5.625H14.875" stroke="#B2B3B0" stroke-width="1.5" stroke-linecap="round" stroke-linejoin="round"/>
</svg>
