<svg width="21" height="20" viewBox="0 0 21 20" fill="none" xmlns="http://www.w3.org/2000/svg">
<path d="M4.79925 3.125H15.5336C15.6576 3.12521 15.7786 3.16225 15.8815 3.23143C15.9843 3.30061 16.0642 3.3988 16.1111 3.51352C16.158 3.62824 16.1697 3.75431 16.1448 3.87571C16.1199 3.9971 16.0594 4.10835 15.9711 4.19531L10.1664 10L4.36175 4.19531C4.27345 4.10835 4.21299 3.9971 4.18807 3.87571C4.16314 3.75431 4.17487 3.62824 4.22176 3.51352C4.26865 3.3988 4.34859 3.30061 4.45142 3.23143C4.55424 3.16225 4.67532 3.12521 4.79925 3.125V3.125Z" stroke="#B2B3B0" stroke-width="1.5" stroke-linecap="round" stroke-linejoin="round"/>
<path d="M4.79925 16.875H15.5336C15.6576 16.8748 15.7786 16.8377 15.8815 16.7686C15.9843 16.6994 16.0642 16.6012 16.1111 16.4865C16.158 16.3718 16.1697 16.2457 16.1448 16.1243C16.1199 16.0029 16.0594 15.8916 15.9711 15.8047L10.1664 10L4.36175 15.8047C4.27345 15.8916 4.21299 16.0029 4.18807 16.1243C4.16314 16.2457 4.17487 16.3718 4.22176 16.4865C4.26865 16.6012 4.34859 16.6994 4.45142 16.7686C4.55424 16.8377 4.67532 16.8748 4.79925 16.875Z" stroke="#B2B3B0" stroke-width="1.5" stroke-linecap="round" stroke-linejoin="round"/>
<path d="M5.7915 5.625H14.5415" stroke="#B2B3B0" stroke-width="1.5" stroke-linecap="round" stroke-linejoin="round"/>
</svg>
