<svg width="23" height="23" viewBox="0 0 23 23" fill="none" xmlns="http://www.w3.org/2000/svg">
<path d="M18.9233 3.35828H4.15853C3.77023 3.35828 3.45544 3.67306 3.45544 4.06136V18.8262C3.45544 19.2145 3.77023 19.5292 4.15853 19.5292H18.9233C19.3116 19.5292 19.6264 19.2145 19.6264 18.8262V4.06136C19.6264 3.67306 19.3116 3.35828 18.9233 3.35828Z" stroke="#141414" stroke-width="1.40617" stroke-linecap="round" stroke-linejoin="round"/>
<path d="M10.8374 10.037V15.6617" stroke="#141414" stroke-width="1.40617" stroke-linecap="round" stroke-linejoin="round"/>
<path d="M8.02487 10.037V15.6617" stroke="#141414" stroke-width="1.40617" stroke-linecap="round" stroke-linejoin="round"/>
<path d="M10.8374 12.4978C10.8374 11.8452 11.0966 11.2193 11.5581 10.7578C12.0196 10.2963 12.6455 10.037 13.2982 10.037C13.9508 10.037 14.5767 10.2963 15.0382 10.7578C15.4997 11.2193 15.759 11.8452 15.759 12.4978V15.6617" stroke="#141414" stroke-width="1.40617" stroke-linecap="round" stroke-linejoin="round"/>
<path d="M8.02481 8.28003C8.60727 8.28003 9.07944 7.80786 9.07944 7.2254C9.07944 6.64295 8.60727 6.17078 8.02481 6.17078C7.44236 6.17078 6.97018 6.64295 6.97018 7.2254C6.97018 7.80786 7.44236 8.28003 8.02481 8.28003Z" fill="#141414"/>
</svg>
