<svg width="32" height="33" viewBox="0 0 32 33" fill="none" xmlns="http://www.w3.org/2000/svg">
<path d="M8 1.75H24C27.866 1.75 31 4.88401 31 8.75V24.75C31 28.616 27.866 31.75 24 31.75H8C4.13401 31.75 1 28.616 1 24.75V8.75C1 4.88401 4.13401 1.75 8 1.75Z" stroke="#202020" stroke-width="2"/>
<path d="M11 8.75H27" stroke="#202020" stroke-width="2" stroke-linecap="round" stroke-linejoin="round"/>
<path d="M11 16.75H27" stroke="#202020" stroke-width="2" stroke-linecap="round" stroke-linejoin="round"/>
<path d="M11 24.75H27" stroke="#202020" stroke-width="2" stroke-linecap="round" stroke-linejoin="round"/>
<path d="M6 8.75C6 9.02614 5.77614 9.25 5.5 9.25C5.22386 9.25 5 9.02614 5 8.75C5 8.47386 5.22386 8.25 5.5 8.25C5.77614 8.25 6 8.47386 6 8.75Z" fill="#202020" stroke="#202020" stroke-width="2"/>
<path d="M6 16.75C6 17.0261 5.77614 17.25 5.5 17.25C5.22386 17.25 5 17.0261 5 16.75C5 16.4739 5.22386 16.25 5.5 16.25C5.77614 16.25 6 16.4739 6 16.75Z" fill="#202020" stroke="#202020" stroke-width="2"/>
<path d="M6 24.75C6 25.0261 5.77614 25.25 5.5 25.25C5.22386 25.25 5 25.0261 5 24.75C5 24.4739 5.22386 24.25 5.5 24.25C5.77614 24.25 6 24.4739 6 24.75Z" fill="#202020" stroke="#202020" stroke-width="2"/>
</svg>
