<svg width="23" height="23" viewBox="0 0 23 23" fill="none" xmlns="http://www.w3.org/2000/svg">
<path fill-rule="evenodd" clip-rule="evenodd" d="M11.0844 22.1688C17.2061 22.1688 22.1688 17.2061 22.1688 11.0844C22.1688 4.96264 17.2061 0 11.0844 0C4.96264 0 0 4.96264 0 11.0844C0 17.2061 4.96264 22.1688 11.0844 22.1688ZM11.6118 9.15997C11.4896 9.15997 11.3906 9.25897 11.3906 9.3811V12.8577C11.3906 12.9799 11.4896 13.0789 11.6118 13.0789H16.4569C16.458 13.0789 16.4592 13.0787 16.4603 13.0784C16.468 13.0761 16.4757 13.0815 16.4755 13.0896C16.438 14.5701 15.3831 17.75 11.4863 19.006C11.3463 19.0511 11.204 18.9454 11.204 18.7982V16.6581C11.204 16.536 11.1047 16.4375 10.9827 16.4328C7.89114 16.3155 5.42089 13.7723 5.42089 10.652C5.42089 7.45705 8.01094 4.867 11.2059 4.867C13.7842 4.867 15.9686 6.55367 16.7157 8.88382C16.7601 9.02213 16.6543 9.15997 16.509 9.15997H11.6118Z" fill="#444444"/>
</svg>
