<svg width="24" height="25" viewBox="0 0 24 25" fill="none" xmlns="http://www.w3.org/2000/svg">
<path d="M21 17.1219V7.87812C20.9993 7.7446 20.9634 7.61362 20.8959 7.49841C20.8284 7.38319 20.7317 7.28781 20.6156 7.22187L12.3656 2.58125C12.2545 2.51706 12.1284 2.48328 12 2.48328C11.8716 2.48328 11.7455 2.51706 11.6344 2.58125L3.38437 7.22187C3.26827 7.28781 3.1716 7.38319 3.10411 7.49841C3.03663 7.61362 3.00072 7.7446 3 7.87812V17.1219C3.00072 17.2554 3.03663 17.3864 3.10411 17.5016C3.1716 17.6168 3.26827 17.7122 3.38437 17.7781L11.6344 22.4187C11.7455 22.4829 11.8716 22.5167 12 22.5167C12.1284 22.5167 12.2545 22.4829 12.3656 22.4187L20.6156 17.7781C20.7317 17.7122 20.8284 17.6168 20.8959 17.5016C20.9634 17.3864 20.9993 17.2554 21 17.1219V17.1219Z" stroke="#202020" stroke-width="2" stroke-linecap="round" stroke-linejoin="round"/>
<path d="M20.8968 7.49365L12.0843 12.4999L3.10303 7.49365" stroke="#202020" stroke-width="2" stroke-linecap="round" stroke-linejoin="round"/>
<path d="M12.0844 12.5L12 22.5125" stroke="#202020" stroke-width="2" stroke-linecap="round" stroke-linejoin="round"/>
</svg>
