<svg width="60" height="61" viewBox="0 0 60 61" fill="none" xmlns="http://www.w3.org/2000/svg">
<path d="M30.9376 42.2329L23.672 49.4985C23.1494 50.0229 22.5285 50.439 21.8447 50.7229C21.161 51.0068 20.428 51.153 19.6876 51.153C18.9473 51.153 18.2143 51.0068 17.5305 50.7229C16.8468 50.439 16.2258 50.0229 15.7033 49.4985L10.547 44.3423C10.0226 43.8197 9.60653 43.1987 9.32263 42.515C9.03872 41.8313 8.89258 41.0982 8.89258 40.3579C8.89258 39.6176 9.03872 38.8845 9.32263 38.2008C9.60653 37.5171 10.0226 36.8961 10.547 36.3735L17.8126 29.1079" fill="#EEFF05"/>
<path d="M30.9376 42.2329L23.672 49.4985C23.1494 50.0229 22.5285 50.439 21.8447 50.7229C21.161 51.0068 20.428 51.153 19.6876 51.153C18.9473 51.153 18.2143 51.0068 17.5305 50.7229C16.8468 50.439 16.2258 50.0229 15.7033 49.4985L10.547 44.3423C10.0226 43.8197 9.60653 43.1987 9.32263 42.515C9.03872 41.8313 8.89258 41.0982 8.89258 40.3579C8.89258 39.6176 9.03872 38.8845 9.32263 38.2008C9.60653 37.5171 10.0226 36.8961 10.547 36.3735L17.8126 29.1079" stroke="black" stroke-width="4" stroke-linecap="round" stroke-linejoin="round"/>
<path d="M13.125 46.9204L5.625 54.4204" stroke="black" stroke-width="4" stroke-linecap="round" stroke-linejoin="round"/>
<path d="M54.375 5.67041L46.875 13.1704" stroke="black" stroke-width="4" stroke-linecap="round" stroke-linejoin="round"/>
<path d="M33.75 33.7954L28.125 39.4204" stroke="black" stroke-width="4" stroke-linecap="round" stroke-linejoin="round"/>
<path d="M26.25 26.2954L20.625 31.9204" stroke="black" stroke-width="4" stroke-linecap="round" stroke-linejoin="round"/>
<path d="M42.1875 30.983L49.4531 23.7174C49.9775 23.1948 50.3936 22.5739 50.6775 21.8902C50.9614 21.2064 51.1076 20.4734 51.1076 19.733C51.1076 18.9927 50.9614 18.2597 50.6775 17.5759C50.3936 16.8922 49.9775 16.2713 49.4531 15.7487L44.2969 10.5924C43.7743 10.068 43.1533 9.65194 42.4696 9.36804C41.7859 9.08413 41.0528 8.93799 40.3125 8.93799C39.5722 8.93799 38.8391 9.08413 38.1554 9.36804C37.4717 9.65194 36.8507 10.068 36.3281 10.5924L29.0625 17.858" fill="#EEFF05"/>
<path d="M42.1875 30.983L49.4531 23.7174C49.9775 23.1948 50.3936 22.5739 50.6775 21.8902C50.9614 21.2064 51.1076 20.4734 51.1076 19.733C51.1076 18.9927 50.9614 18.2597 50.6775 17.5759C50.3936 16.8922 49.9775 16.2713 49.4531 15.7487L44.2969 10.5924C43.7743 10.068 43.1533 9.65194 42.4696 9.36804C41.7859 9.08413 41.0528 8.93799 40.3125 8.93799C39.5722 8.93799 38.8391 9.08413 38.1554 9.36804C37.4717 9.65194 36.8507 10.068 36.3281 10.5924L29.0625 17.858" stroke="black" stroke-width="4" stroke-linecap="round" stroke-linejoin="round"/>
<path d="M27.1875 15.9829L44.0625 32.8579" stroke="black" stroke-width="4" stroke-linecap="round" stroke-linejoin="round"/>
<path d="M15.9375 27.2329L32.8125 44.1079" stroke="black" stroke-width="4" stroke-linecap="round" stroke-linejoin="round"/>
</svg>
