<svg width="29" height="28" viewBox="0 0 29 28" fill="none" xmlns="http://www.w3.org/2000/svg">
<g clip-path="url(#clip0_749_29272)">
<path d="M14.5 28C22.232 28 28.5 21.732 28.5 14C28.5 6.26801 22.232 0 14.5 0C6.76801 0 0.5 6.26801 0.5 14C0.5 21.732 6.76801 28 14.5 28Z" fill="#FF4500"/>
<path d="M23.8331 14.0002C23.8331 12.8703 22.9162 11.9534 21.7864 11.9534C21.2296 11.9534 20.7384 12.1662 20.3782 12.5265C18.9864 11.5277 17.0542 10.8727 14.9255 10.7908L15.8589 6.41888L18.8881 7.05748C18.9209 7.82707 19.5595 8.44929 20.3454 8.44929C21.1478 8.44929 21.8027 7.79432 21.8027 6.99198C21.8027 6.18964 21.1478 5.53467 20.3454 5.53467C19.7723 5.53467 19.2811 5.86215 19.0519 6.35338L15.6624 5.63291C15.5641 5.61654 15.4659 5.63291 15.384 5.68204C15.3021 5.73116 15.253 5.81303 15.2203 5.91128L14.1887 10.7908C12.0109 10.8563 10.0624 11.4949 8.65419 12.5265C8.29396 12.1826 7.78635 11.9534 7.246 11.9534C6.11618 11.9534 5.19922 12.8703 5.19922 14.0002C5.19922 14.8353 5.69045 15.5393 6.41091 15.8668C6.37817 16.0633 6.36179 16.2762 6.36179 16.4891C6.36179 19.6329 10.0133 22.1709 14.5326 22.1709C19.0519 22.1709 22.7033 19.6329 22.7033 16.4891C22.7033 16.2762 22.6869 16.0797 22.6542 15.8832C23.3255 15.5557 23.8331 14.8353 23.8331 14.0002ZM9.83314 15.4575C9.83314 14.6551 10.4881 14.0002 11.2904 14.0002C12.0928 14.0002 12.7478 14.6551 12.7478 15.4575C12.7478 16.2598 12.0928 16.9148 11.2904 16.9148C10.4881 16.9148 9.83314 16.2598 9.83314 15.4575ZM17.9711 19.3054C16.9723 20.3043 15.0729 20.3698 14.5162 20.3698C13.9595 20.3698 12.0437 20.2879 11.0612 19.3054C10.9138 19.1581 10.9138 18.9124 11.0612 18.7651C11.2086 18.6177 11.4542 18.6177 11.6016 18.7651C12.2238 19.3873 13.5665 19.6165 14.5326 19.6165C15.4986 19.6165 16.825 19.3873 17.4635 18.7651C17.6109 18.6177 17.8565 18.6177 18.0039 18.7651C18.1185 18.9288 18.1185 19.1581 17.9711 19.3054ZM17.7092 16.9148C16.9068 16.9148 16.2519 16.2598 16.2519 15.4575C16.2519 14.6551 16.9068 14.0002 17.7092 14.0002C18.5115 14.0002 19.1665 14.6551 19.1665 15.4575C19.1665 16.2598 18.5115 16.9148 17.7092 16.9148Z" fill="white"/>
</g>
<defs>
<clipPath id="clip0_749_29272">
<rect width="28" height="28" fill="white" transform="translate(0.5)"/>
</clipPath>
</defs>
</svg>
