<svg width="34" height="33" viewBox="0 0 34 33" fill="none" xmlns="http://www.w3.org/2000/svg">
<circle cx="16.9755" cy="16.04" r="15.24" fill="#030303" stroke="#030303" stroke-width="1.6"/>
<path d="M23.1694 15.5705C23.6612 15.5705 24.0598 15.9691 24.0598 16.4609V16.8976C24.0652 16.9232 24.068 16.9497 24.068 16.9769L23.1694 15.5705ZM23.1694 15.5705H18.3456C17.5733 15.5705 16.9472 16.1966 16.9472 16.9689V17.6607C16.9472 18.433 17.5733 19.0591 18.3456 19.0591H19.4249C19.6599 19.0591 19.8333 19.1791 19.9103 19.3122C19.9786 19.4303 19.9817 19.5675 19.8526 19.7052L20.1288 19.9643M23.1694 15.5705L20.1288 19.9643M20.1288 19.9643L19.8526 19.7052C19.8234 19.7363 19.7938 19.7669 19.7636 19.7971L20.0233 20.0567M20.1288 19.9643L20.0233 20.0567M20.0233 20.0567L19.7636 19.7971C19.3927 20.168 18.9524 20.4622 18.4677 20.6629M20.0233 20.0567L18.4677 20.6629M18.4677 20.6629C17.9831 20.8637 17.4637 20.967 16.9391 20.967M18.4677 20.6629L16.9391 20.967M16.9391 20.967C16.4146 20.967 15.8952 20.8637 15.4106 20.6629M16.9391 20.967L15.4106 20.6629M15.4106 20.6629C14.9259 20.4622 14.4856 20.168 14.1147 19.7971M15.4106 20.6629L14.1147 19.7971M14.1147 19.7971C13.7438 19.4261 13.4496 18.9858 13.2488 18.5012M14.1147 19.7971L13.2488 18.5012M13.2488 18.5012C13.1673 18.3044 13.1018 18.1018 13.0529 17.8955M13.2488 18.5012L13.0529 17.8955M13.0529 17.8955C12.8948 17.23 12.3342 16.5939 11.5464 16.5939M13.0529 17.8955L11.5464 16.5939M11.5464 16.5939H11.2087M11.5464 16.5939H11.2087M11.2087 16.5939C10.4549 16.5939 9.76591 17.2205 9.89148 18.0454M11.2087 16.5939L9.89148 18.0454M9.89148 18.0454C9.97779 18.6124 10.1324 19.1683 10.3529 19.7007M9.89148 18.0454L10.3529 19.7007M10.3529 19.7007C10.7112 20.5656 11.2363 21.3515 11.8983 22.0135M10.3529 19.7007L11.8983 22.0135M11.8983 22.0135C12.5603 22.6754 13.3461 23.2005 14.2111 23.5588M11.8983 22.0135L14.2111 23.5588M14.2111 23.5588C15.076 23.9171 16.003 24.1015 16.9391 24.1015M14.2111 23.5588L16.9391 24.1015M16.9391 24.1015C17.8753 24.1015 18.8023 23.9171 19.6672 23.5588M16.9391 24.1015L19.6672 23.5588M19.6672 23.5588C20.5322 23.2005 21.318 22.6754 21.98 22.0135M19.6672 23.5588L21.98 22.0135M21.98 22.0135C22.642 21.3515 23.1671 20.5656 23.5253 19.7007M21.98 22.0135L23.5253 19.7007M23.5253 19.7007C23.883 18.8371 24.0674 17.9117 24.068 16.977L23.5253 19.7007ZM23.6852 17.3513C23.683 17.3513 23.6808 17.3513 23.6786 17.3513L23.6852 17.3513Z" fill="#0EB3F1" stroke="#0EB3F1" stroke-width="0.757441"/>
<path d="M11.528 9.34404C11.9389 9.05628 12.4524 9.38058 12.4524 9.85387V10.8098C12.4524 11.1611 12.1676 11.4459 11.8164 11.4459H10.7311C10.4889 11.4459 10.2897 11.3156 10.1907 11.133C10.0906 10.9485 10.0948 10.7126 10.2523 10.5191C10.547 10.157 10.8945 9.82165 11.2885 9.51957C11.3667 9.45961 11.4466 9.40108 11.528 9.34404Z" fill="#0EB3F1" stroke="#0EB3F1" stroke-width="0.25248"/>
<path d="M18.4707 9.49034C18.4707 8.92721 18.9272 8.4707 19.4903 8.4707H20.3031C20.8662 8.4707 21.3227 8.92721 21.3227 9.49035V11.8936C21.3227 12.4568 20.8662 12.9133 20.3031 12.9133H19.4903C18.9272 12.9133 18.4707 12.4568 18.4707 11.8936V9.49034Z" fill="#0EB3F1"/>
<path fill-rule="evenodd" clip-rule="evenodd" d="M19.4909 8.21875H20.3036C21.0062 8.21875 21.5757 8.7883 21.5757 9.49087V11.8942C21.5757 12.5967 21.0062 13.1663 20.3036 13.1663H19.4909C18.7883 13.1663 18.2188 12.5967 18.2188 11.8942V9.49087C18.2188 8.7883 18.7883 8.21875 19.4909 8.21875ZM19.4909 8.47123C18.9277 8.47123 18.4712 8.92774 18.4712 9.49087V11.8942C18.4712 12.4573 18.9277 12.9138 19.4909 12.9138H20.3036C20.8667 12.9138 21.3232 12.4573 21.3232 11.8942V9.49087C21.3232 8.92774 20.8667 8.47123 20.3036 8.47123H19.4909Z" fill="#0EB3F1"/>
<path d="M15.0939 8.34446C14.461 8.34446 13.948 8.85749 13.948 9.49035V10.3031C13.948 10.9359 14.461 11.449 15.0939 11.449H15.6872C16.3201 11.449 16.8331 10.9359 16.8331 10.3031V9.49034C16.8331 8.85749 16.3201 8.34446 15.6872 8.34446H15.0939Z" fill="#0EB3F1" stroke="#0EB3F1" stroke-width="0.25248"/>
</svg>
