<svg width="375" height="76" viewBox="0 0 375 76" fill="none" xmlns="http://www.w3.org/2000/svg">
<path d="M0 7.74946C0 6.81666 0.179386 5.91973 0.538157 5.05868C0.968684 4.12587 1.54272 3.26482 2.26026 2.47552C3.04956 1.68622 3.87473 1.11219 4.73579 0.753417C5.59684 0.322892 6.56552 0.10763 7.64184 0.10763L8.71815 0H17.3287C18.3332 0.0717534 19.266 0.322892 20.1271 0.753417C21.0599 1.11219 21.8851 1.68622 22.6026 2.47552C23.3919 3.19307 23.966 4.01824 24.3247 4.95105C24.7553 5.88385 24.9705 6.85253 24.9705 7.8571V25.5087H14.0997V10.0097C14.0997 9.79447 14.028 9.5792 13.8845 9.36394C13.8127 9.14867 13.7051 8.96929 13.5616 8.82578C13.4181 8.68227 13.2387 8.57464 13.0234 8.50289C12.8799 8.43114 12.7005 8.35938 12.4853 8.28762C12.27 8.35938 12.0547 8.43114 11.8395 8.50289C11.6242 8.57464 11.4448 8.68227 11.3013 8.82578C11.1578 8.96929 11.0502 9.14867 10.9784 9.36394C10.9067 9.5792 10.8708 9.83034 10.8708 10.1174V66.0857C10.8708 66.4445 10.9067 66.7315 10.9784 66.9468C11.0502 67.1621 11.1578 67.3414 11.3013 67.485C11.4448 67.6285 11.6242 67.772 11.8395 67.9155C12.0547 67.9872 12.27 68.0231 12.4853 68.0231C12.7005 67.9514 12.8799 67.8796 13.0234 67.8078C13.2387 67.6643 13.4181 67.5208 13.5616 67.3773C13.7051 67.2338 13.8127 67.0903 13.8845 66.9468C14.028 66.7315 14.0997 66.5163 14.0997 66.301V43.3755H24.9705V69.2071C24.9705 70.2116 24.7911 71.1086 24.4324 71.8979C24.0736 72.6154 23.5354 73.2971 22.8179 73.9428C22.1003 74.5886 21.311 75.055 20.45 75.3421C19.5889 75.6291 18.6203 75.7726 17.5439 75.7726L16.4676 75.8802H7.21131C7.13956 75.8085 7.0678 75.7726 6.99605 75.7726C6.9243 75.7726 6.85254 75.7726 6.78079 75.7726C6.70903 75.7726 6.63728 75.7726 6.56552 75.7726C6.49377 75.7726 6.42201 75.7726 6.35026 75.7726C5.56096 75.7008 4.77166 75.5214 3.98237 75.2344C3.26482 74.9474 2.58316 74.5169 1.93737 73.9428C1.29158 73.3688 0.789298 72.7589 0.430526 72.1131C0.143509 71.3956 0 70.678 0 69.9605V7.74946Z" fill="white"/>
<path d="M36.5345 0H45.1451C46.0061 0.0717534 46.8313 0.287016 47.6206 0.645787C48.4816 1.00456 49.2709 1.54272 49.9885 2.26026C50.7778 2.9778 51.3877 3.73122 51.8182 4.52052C52.2487 5.23807 52.5358 5.99149 52.6793 6.78078C52.6793 6.85253 52.6793 6.92429 52.6793 6.99605C52.6793 6.99605 52.7151 7.03192 52.7869 7.10368C52.7869 7.17543 52.7869 7.24718 52.7869 7.31894C52.7869 7.31894 52.7869 7.35482 52.7869 7.42657C52.7869 7.49833 52.7869 7.57008 52.7869 7.64183C52.7869 7.71359 52.7869 7.78534 52.7869 7.8571V68.346C52.7869 68.4895 52.7869 68.633 52.7869 68.7765C52.7869 68.8483 52.7869 68.92 52.7869 68.9918C52.7151 69.1353 52.6793 69.2429 52.6793 69.3147C52.6793 69.3864 52.6793 69.4941 52.6793 69.6376C52.6793 69.8528 52.6434 70.0681 52.5716 70.2834C52.5716 70.4269 52.5358 70.5704 52.464 70.7139C52.2487 71.3597 51.9617 71.9696 51.603 72.5436C51.2442 73.1177 50.7778 73.6917 50.2037 74.2657C49.6297 74.768 48.9122 75.1627 48.0511 75.4497C47.2618 75.6649 46.329 75.7726 45.2527 75.7726L44.1764 75.8802H35.4582C34.3819 75.8085 33.4132 75.6649 32.5522 75.4497C31.7629 75.1627 31.0812 74.768 30.5072 74.2657C29.9331 73.6917 29.4309 73.1177 29.0003 72.5436C28.6416 71.9696 28.3904 71.3597 28.2469 70.7139C28.1752 70.5704 28.1034 70.4269 28.0316 70.2834C27.9599 70.0681 27.924 69.8528 27.924 69.6376C27.924 69.4941 27.924 69.3864 27.924 69.3147C27.924 69.2429 27.924 69.1353 27.924 68.9918C27.924 68.92 27.924 68.8483 27.924 68.7765C27.924 68.633 27.924 68.5254 27.924 68.4536V7.74946C27.924 7.74946 27.924 7.71359 27.924 7.64183C27.924 7.57008 27.924 7.49833 27.924 7.42657C27.924 7.28306 27.924 7.17543 27.924 7.10368C27.924 6.96017 27.9599 6.85253 28.0316 6.78078C28.1752 5.99149 28.4622 5.23807 28.8927 4.52052C29.3232 3.73122 29.8973 2.9778 30.6148 2.26026C31.4041 1.54272 32.1934 1.00456 32.9827 0.645787C33.772 0.287016 34.5972 0.10763 35.4582 0.10763L36.5345 0ZM41.8085 10.0097C41.8085 9.79447 41.7726 9.5792 41.7009 9.36394C41.6291 9.14867 41.5215 9.00517 41.378 8.93342C41.2345 8.7899 41.0551 8.68227 40.8398 8.61052C40.6963 8.53876 40.5169 8.46701 40.3016 8.39526C40.0864 8.46701 39.8711 8.53876 39.6559 8.61052C39.5123 8.68227 39.3688 8.7899 39.2253 8.93342C39.0818 9.00517 38.9742 9.14867 38.9024 9.36394C38.8307 9.5792 38.7948 9.83034 38.7948 10.1174V66.0857C38.7948 66.4445 38.8307 66.7315 38.9024 66.9468C38.9742 67.0903 39.0818 67.2338 39.2253 67.3773C39.3688 67.5208 39.5123 67.6643 39.6559 67.8078C39.7994 67.8796 39.9787 67.9514 40.194 68.0231C40.4093 67.9514 40.5887 67.8796 40.7322 67.8078C40.9474 67.6643 41.1268 67.5208 41.2703 67.3773C41.4138 67.2338 41.5215 67.0903 41.5932 66.9468C41.7367 66.7315 41.8085 66.4804 41.8085 66.1934V10.0097Z" fill="white"/>
<path d="M66.5036 0.645787V67.7002H72.7462V75.6649H55.7404V0.645787H66.5036Z" fill="white"/>
<path d="M84.8601 0.645787V67.7002H91.1028V75.6649H74.097V0.645787H84.8601Z" fill="white"/>
<path d="M103.217 30.2445H109.352V38.1016H103.217V67.7002H109.459V75.6649H92.4536V0.645787H109.352V8.61052H103.217V30.2445Z" fill="white"/>
<path d="M110.703 7.74946C110.703 6.81666 110.882 5.91973 111.241 5.05868C111.671 4.12587 112.245 3.26482 112.963 2.47552C113.752 1.68622 114.577 1.11219 115.438 0.753417C116.299 0.322892 117.268 0.10763 118.344 0.10763L119.421 0H128.031C129.036 0.0717534 129.969 0.322892 130.83 0.753417C131.762 1.11219 132.588 1.68622 133.305 2.47552C134.094 3.19307 134.668 4.01824 135.027 4.95105C135.458 5.88385 135.673 6.85253 135.673 7.8571V25.5087H124.802V10.0097C124.802 9.79447 124.731 9.5792 124.587 9.36394C124.515 9.14867 124.408 8.96929 124.264 8.82578C124.121 8.68227 123.941 8.57464 123.726 8.50289C123.582 8.43114 123.403 8.35938 123.188 8.28762C122.973 8.35938 122.757 8.43114 122.542 8.50289C122.327 8.57464 122.147 8.68227 122.004 8.82578C121.86 8.96929 121.753 9.14867 121.681 9.36394C121.609 9.5792 121.573 9.83034 121.573 10.1174V66.0857C121.573 66.4445 121.609 66.7315 121.681 66.9468C121.753 67.1621 121.86 67.3414 122.004 67.485C122.147 67.6285 122.327 67.772 122.542 67.9155C122.757 67.9872 122.973 68.0231 123.188 68.0231C123.403 67.9514 123.582 67.8796 123.726 67.8078C123.941 67.6643 124.121 67.5208 124.264 67.3773C124.408 67.2338 124.515 67.0903 124.587 66.9468C124.731 66.7315 124.802 66.5163 124.802 66.301V43.3755H135.673V69.2071C135.673 70.2116 135.494 71.1086 135.135 71.8979C134.776 72.6154 134.238 73.2971 133.52 73.9428C132.803 74.5886 132.014 75.055 131.153 75.3421C130.291 75.6291 129.323 75.7726 128.246 75.7726L127.17 75.8802H117.914C117.842 75.8085 117.77 75.7726 117.699 75.7726C117.627 75.7726 117.555 75.7726 117.483 75.7726C117.412 75.7726 117.34 75.7726 117.268 75.7726C117.196 75.7726 117.125 75.7726 117.053 75.7726C116.263 75.7008 115.474 75.5214 114.685 75.2344C113.967 74.9474 113.286 74.5169 112.64 73.9428C111.994 73.3688 111.492 72.7589 111.133 72.1131C110.846 71.3956 110.703 70.678 110.703 69.9605V7.74946Z" fill="white"/>
<path d="M141.533 8.61052H136.904V0.645787H157.032V8.61052H152.403V75.6649H141.533V8.61052Z" fill="white"/>
<path d="M182.004 29.9216H188.139V37.7787H182.004V67.3773H188.247V75.3421H171.241V0.322897H188.139V8.28763H182.004V29.9216Z" fill="white"/>
<path d="M210.155 0.322897L215.429 75.3421H205.204L204.236 58.7668H200.146L199.177 75.3421H188.952L194.226 0.322897H210.155ZM202.191 18.5126L200.576 50.3716H203.805L202.191 18.5126Z" fill="white"/>
<path d="M236.535 0C236.607 0.0717534 236.642 0.10763 236.642 0.10763C236.714 0.10763 236.786 0.10763 236.858 0.10763C236.929 0.179388 236.965 0.215267 236.965 0.215267C237.037 0.215267 237.109 0.215267 237.181 0.215267C237.324 0.215267 237.432 0.215267 237.503 0.215267C237.647 0.215267 237.755 0.215267 237.826 0.215267C238.616 0.430527 239.333 0.753422 239.979 1.18395C240.697 1.61448 241.378 2.15263 242.024 2.79842C242.67 3.44421 243.136 4.16175 243.423 4.95105C243.782 5.74035 243.961 6.56553 243.961 7.42658V30.5674C243.961 30.7109 243.961 30.8185 243.961 30.8902C243.961 30.962 243.961 31.0338 243.961 31.1055C243.89 31.249 243.854 31.3567 243.854 31.4284C243.854 31.5002 243.854 31.5719 243.854 31.6437C243.854 31.7872 243.818 31.9307 243.746 32.0742C243.746 32.2177 243.71 32.3612 243.638 32.5047C243.495 33.0788 243.28 33.6528 242.993 34.2268C242.706 34.7291 242.383 35.2314 242.024 35.7337C241.665 36.2359 241.271 36.6665 240.84 37.0252C240.481 37.3123 240.087 37.5634 239.656 37.7787C240.087 38.0657 240.481 38.3886 240.84 38.7474C241.271 39.0344 241.629 39.3573 241.916 39.716C242.275 40.0748 242.562 40.4336 242.777 40.7923C242.993 41.1511 243.208 41.5099 243.423 41.8687C243.567 42.0839 243.638 42.2992 243.638 42.5145C243.71 42.7297 243.782 42.945 243.854 43.1602C243.854 43.232 243.854 43.3396 243.854 43.4831C243.854 43.5549 243.89 43.6625 243.961 43.806C243.961 43.8778 243.961 43.9854 243.961 44.1289C243.961 44.2007 243.961 44.2724 243.961 44.3442V75.3421H233.091V44.0213C233.091 43.806 233.019 43.5908 232.875 43.3755C232.732 43.1602 232.517 42.9809 232.229 42.8373C231.942 42.6938 231.584 42.5862 231.153 42.5145C230.794 42.3709 230.364 42.2992 229.862 42.2992V75.3421H218.991V0H236.535ZM233.091 9.9021C233.091 9.61508 233.019 9.36394 232.875 9.14868C232.732 8.93342 232.517 8.75403 232.229 8.61053C231.942 8.46701 231.62 8.35938 231.261 8.28763C230.902 8.21588 230.436 8.18 229.862 8.18V33.581C229.933 33.6528 229.969 33.6887 229.969 33.6887C230.041 33.6887 230.113 33.6887 230.184 33.6887C230.256 33.6887 230.328 33.6887 230.4 33.6887C230.4 33.7604 230.4 33.7963 230.4 33.7963C230.472 33.7963 230.507 33.7963 230.507 33.7963C230.938 33.7245 231.297 33.6528 231.584 33.581C231.942 33.4375 232.229 33.294 232.445 33.1505C232.66 33.007 232.804 32.8635 232.875 32.72C233.019 32.5047 233.091 32.2536 233.091 31.9666V9.9021Z" fill="white"/>
<path d="M257.893 0.322897L263.06 33.3658V0.322897H272.639V75.3421H261.876L256.709 39.6084V75.3421H247.13V0.322897H257.893Z" fill="white"/>
<path d="M291.504 8.28763H286.876V0.322897H307.003V8.28763H302.375V75.3421H291.504V8.28763Z" fill="white"/>
<path d="M325.865 0C325.937 0.0717534 325.973 0.10763 325.973 0.10763C326.044 0.10763 326.116 0.10763 326.188 0.10763C326.26 0.179388 326.296 0.215267 326.296 0.215267C326.367 0.215267 326.439 0.215267 326.511 0.215267C326.654 0.215267 326.762 0.215267 326.834 0.215267C326.977 0.215267 327.085 0.215267 327.157 0.215267C327.946 0.430527 328.663 0.753422 329.309 1.18395C330.027 1.61448 330.708 2.15263 331.354 2.79842C332 3.44421 332.466 4.16175 332.753 4.95105C333.112 5.74035 333.292 6.56553 333.292 7.42658V30.5674C333.292 30.7109 333.292 30.8185 333.292 30.8902C333.292 30.962 333.292 31.0338 333.292 31.1055C333.22 31.249 333.184 31.3567 333.184 31.4284C333.184 31.5002 333.184 31.5719 333.184 31.6437C333.184 31.7872 333.148 31.9307 333.076 32.0742C333.076 32.2177 333.04 32.3612 332.969 32.5047C332.825 33.0788 332.61 33.6528 332.323 34.2268C332.036 34.7291 331.713 35.2314 331.354 35.7337C330.995 36.2359 330.601 36.6665 330.17 37.0252C329.812 37.3123 329.417 37.5634 328.986 37.7787C329.417 38.0657 329.812 38.3886 330.17 38.7474C330.601 39.0344 330.96 39.3573 331.247 39.716C331.605 40.0748 331.892 40.4336 332.108 40.7923C332.323 41.1511 332.538 41.5099 332.753 41.8687C332.897 42.0839 332.969 42.2992 332.969 42.5145C333.04 42.7297 333.112 42.945 333.184 43.1602C333.184 43.232 333.184 43.3396 333.184 43.4831C333.184 43.5549 333.22 43.6625 333.292 43.806C333.292 43.8778 333.292 43.9854 333.292 44.1289C333.292 44.2007 333.292 44.2724 333.292 44.3442V75.3421H322.421V44.0213C322.421 43.806 322.349 43.5908 322.206 43.3755C322.062 43.1602 321.847 42.9809 321.56 42.8373C321.273 42.6938 320.914 42.5862 320.483 42.5145C320.125 42.3709 319.694 42.2992 319.192 42.2992V75.3421H308.321V0H325.865ZM322.421 9.9021C322.421 9.61508 322.349 9.36394 322.206 9.14868C322.062 8.93342 321.847 8.75403 321.56 8.61053C321.273 8.46701 320.95 8.35938 320.591 8.28763C320.232 8.21588 319.766 8.18 319.192 8.18V33.581C319.264 33.6528 319.299 33.6887 319.299 33.6887C319.371 33.6887 319.443 33.6887 319.515 33.6887C319.587 33.6887 319.658 33.6887 319.73 33.6887C319.73 33.7604 319.73 33.7963 319.73 33.7963C319.802 33.7963 319.838 33.7963 319.838 33.7963C320.268 33.7245 320.627 33.6528 320.914 33.581C321.273 33.4375 321.56 33.294 321.775 33.1505C321.99 33.007 322.134 32.8635 322.206 32.72C322.349 32.5047 322.421 32.2536 322.421 31.9666V9.9021Z" fill="white"/>
<path d="M356.695 0.322897L361.969 75.3421H351.744L350.775 58.7668H346.685L345.717 75.3421H335.492L340.766 0.322897H356.695ZM348.73 18.5126L347.116 50.3716H350.345L348.73 18.5126Z" fill="white"/>
<path d="M381.675 0C382.895 0.0717534 384.007 0.322895 385.012 0.753424C386.088 1.18395 387.057 1.82974 387.918 2.69079C388.707 3.55184 389.317 4.48465 389.748 5.48921C390.178 6.49377 390.393 7.53421 390.393 8.61053V66.5163C390.393 67.8079 390.178 68.9918 389.748 70.0681C389.317 71.0727 388.707 72.0055 387.918 72.8665C387.129 73.7276 386.267 74.3734 385.335 74.8039C384.402 75.1627 383.433 75.3421 382.429 75.3421H365.423V0H381.675ZM379.415 9.9021C379.415 9.75859 379.343 9.57921 379.2 9.36394C379.056 9.14868 378.877 8.93342 378.662 8.71816C378.446 8.57465 378.195 8.46701 377.908 8.39526C377.621 8.25175 377.298 8.18 376.939 8.18L376.294 8.07237V67.3773H376.939C377.298 67.4491 377.621 67.4491 377.908 67.3773C378.267 67.3056 378.554 67.1621 378.769 66.9468C378.984 66.7315 379.128 66.5163 379.2 66.301C379.343 66.014 379.415 65.727 379.415 65.44V9.9021Z" fill="white"/>
<path d="M404.11 29.9216H410.245V37.7787H404.11V67.3773H410.353V75.3421H393.347V0.322897H410.245V8.28763H404.11V29.9216Z" fill="white"/>
</svg>
