<svg width="21" height="21" viewBox="0 0 21 21" fill="none" xmlns="http://www.w3.org/2000/svg">
<path d="M11.092 0.976648C10.6387 0.824841 10.3613 0.824841 9.90804 0.976648C8.80227 1.34698 8.85023 3.69062 9.19193 6.0029C8.32681 3.8315 7.1919 1.78043 6.04963 2.01518C5.5814 2.1114 5.3415 2.25063 5.02567 2.60945C4.26611 3.47238 5.43891 5.43113 6.86744 7.2382C5.05724 5.81364 3.09591 4.64514 2.23465 5.40659C1.87653 5.72322 1.73783 5.96342 1.64263 6.43186C1.41198 7.56687 3.43611 8.68965 5.5929 9.54779C3.29602 9.21243 0.98167 9.17259 0.613855 10.2708C0.462048 10.7241 0.462048 11.0015 0.613855 11.4548C0.98167 12.553 3.29601 12.5132 5.5929 12.1778C3.43611 13.0359 1.41197 14.1587 1.64262 15.2937C1.73782 15.7622 1.87652 16.0024 2.23464 16.319C3.0959 17.0804 5.05719 15.912 6.86738 14.4874C5.43886 16.2945 4.26608 18.2532 5.02564 19.1161C5.34147 19.475 5.58137 19.6142 6.0496 19.7104C7.19189 19.9452 8.32682 17.894 9.19195 15.7226C8.85023 18.0349 8.80225 20.3786 9.90804 20.7489C10.3613 20.9007 10.6387 20.9007 11.092 20.7489C12.1978 20.3786 12.1498 18.0348 11.808 15.7224C12.6732 17.8939 13.8081 19.9452 14.9504 19.7104C15.4187 19.6142 15.6586 19.475 15.9744 19.1161C16.7339 18.2532 15.5612 16.2945 14.1327 14.4874C15.9428 15.912 17.9041 17.0804 18.7654 16.319C19.1235 16.0024 19.2622 15.7622 19.3574 15.2937C19.5881 14.1587 17.5639 13.0359 15.4072 12.1778C17.704 12.5132 20.0183 12.553 20.3861 11.4548C20.538 11.0015 20.538 10.7241 20.3861 10.2708C20.0183 9.1726 17.704 9.21243 15.4072 9.54778C17.5639 8.68965 19.5881 7.56686 19.3574 6.43186C19.2622 5.96342 19.1235 5.72322 18.7654 5.40659C17.9041 4.64514 15.9428 5.81364 14.1326 7.2382C15.5611 5.43113 16.7339 3.47238 15.9744 2.60945C15.6585 2.25063 15.4186 2.1114 14.9504 2.01518C13.8081 1.78043 12.6732 3.83158 11.8081 6.00303C12.1498 3.6907 12.1978 1.34699 11.092 0.976648Z" fill="#EAFB06"/>
</svg>
