<svg width="32" height="33" viewBox="0 0 32 33" fill="none" xmlns="http://www.w3.org/2000/svg">
<path d="M11.7625 23.8258C10.3375 28.0633 4.6875 28.0633 4.6875 28.0633C4.6875 28.0633 4.6875 22.4133 8.925 20.9883" fill="#ECF962"/>
<path d="M11.7625 23.8258C10.3375 28.0633 4.6875 28.0633 4.6875 28.0633C4.6875 28.0633 4.6875 22.4133 8.925 20.9883" stroke="#202020" stroke-width="2" stroke-linecap="round" stroke-linejoin="round"/>
<path d="M24.4879 13.9244L16.0004 22.4119L10.3379 16.7494L18.8254 8.26186C22.0379 5.04936 25.2504 5.08686 26.6254 5.28686C26.8376 5.31517 27.0345 5.41251 27.1859 5.56387C27.3372 5.71523 27.4346 5.91219 27.4629 6.12436C27.6629 7.49936 27.7004 10.7119 24.4879 13.9244Z" fill="#ECF962" stroke="#202020" stroke-width="2" stroke-linecap="round" stroke-linejoin="round"/>
<path d="M23.075 15.3379V23.4129C23.0712 23.6767 22.9634 23.9283 22.775 24.1129L18.7375 28.1629C18.6094 28.2908 18.449 28.3816 18.2733 28.4255C18.0977 28.4694 17.9134 28.4648 17.7402 28.4122C17.567 28.3596 17.4113 28.261 17.2897 28.1268C17.1682 27.9926 17.0853 27.828 17.05 27.6504L16 22.4129" stroke="#202020" stroke-width="2" stroke-linecap="round" stroke-linejoin="round"/>
<path d="M17.4124 9.67578H9.33741C9.07364 9.67954 8.82204 9.78737 8.63741 9.97578L4.58741 14.0133C4.45946 14.1414 4.36869 14.3018 4.32478 14.4774C4.28087 14.6531 4.28547 14.8373 4.33808 15.0106C4.39069 15.1838 4.48934 15.3395 4.62351 15.4611C4.75768 15.5826 4.92234 15.6655 5.09991 15.7008L10.3374 16.7508" stroke="#202020" stroke-width="2" stroke-linecap="round" stroke-linejoin="round"/>
</svg>
