<svg width="374" height="374" viewBox="0 0 374 374" fill="none" xmlns="http://www.w3.org/2000/svg">
<path fill-rule="evenodd" clip-rule="evenodd" d="M186.891 373.827C290.108 373.827 373.781 290.153 373.781 186.936C373.781 83.7192 290.108 0.0454102 186.891 0.0454102C83.6738 0.0454102 0 83.7192 0 186.936C0 290.153 83.6738 373.827 186.891 373.827ZM298.09 150.805C243.209 168.601 186.925 127.708 186.891 70.0144C186.857 127.708 130.572 168.601 75.6917 150.805C130.551 168.666 152.05 234.832 118.166 281.528C152.105 234.872 221.677 234.872 255.616 281.528C221.731 234.832 243.23 168.666 298.09 150.805Z" fill="#EEFF05"/>
</svg>
