<svg width="24" height="25" viewBox="0 0 24 25" fill="none" xmlns="http://www.w3.org/2000/svg">
<path d="M3 10.5H7.5V20.25H3C2.80109 20.25 2.61032 20.171 2.46967 20.0303C2.32902 19.8897 2.25 19.6989 2.25 19.5V11.25C2.25 11.0511 2.32902 10.8603 2.46967 10.7197C2.61032 10.579 2.80109 10.5 3 10.5V10.5Z" stroke="#202020" stroke-width="2" stroke-linecap="round" stroke-linejoin="round"/>
<path d="M7.5 10.5L11.25 3C12.0456 3 12.8087 3.31607 13.3713 3.87868C13.9339 4.44129 14.25 5.20435 14.25 6V8.25H20.0531C20.2658 8.24947 20.4762 8.29447 20.67 8.38197C20.8639 8.46946 21.0368 8.59743 21.1771 8.75728C21.3174 8.91712 21.4219 9.10514 21.4835 9.30871C21.5451 9.51228 21.5625 9.72667 21.5344 9.9375L20.4094 18.9375C20.3639 19.2988 20.1885 19.6312 19.9159 19.8727C19.6434 20.1142 19.2923 20.2483 18.9281 20.25H7.5" stroke="#202020" stroke-width="2" stroke-linecap="round" stroke-linejoin="round"/>
</svg>
