<svg width="31" height="31" viewBox="0 0 31 31" fill="none" xmlns="http://www.w3.org/2000/svg">
<path d="M15.3746 15.8534C15.3746 15.8534 15.0095 23.0709 19.2519 27.1422C23.4942 31.2135 30.7445 30.8545 30.7445 30.8545C30.7445 30.8545 31.1195 23.8924 26.8772 19.8187C22.6373 15.7474 15.3746 15.8534 15.3746 15.8534Z" fill="#141414"/>
<path d="M30.7451 0.863174C30.7451 0.863174 31.1101 8.07156 26.8685 12.1377C22.6268 16.2062 15.3752 15.8453 15.3752 15.8453C15.3752 15.8453 15.0002 8.892 19.2419 4.82345C23.4836 0.757308 30.7451 0.863174 30.7451 0.863174Z" fill="#141414"/>
<path d="M15.3589 15.8534C15.3589 15.8534 15.7235 23.0708 11.4872 27.1421C7.25089 31.2158 0.00847816 30.8544 0.00847816 30.8544C0.00847816 30.8544 -0.366041 23.8923 3.87027 19.8187C8.10657 15.7474 15.3589 15.8534 15.3589 15.8534Z" fill="#141414"/>
<path d="M0.00788689 0.863174C0.00788689 0.863174 -0.356702 8.07156 3.87961 12.1377C8.11591 16.2062 15.3583 15.8453 15.3583 15.8453C15.3583 15.8453 15.7328 8.892 11.4965 4.82345C7.26021 0.757308 0.00788689 0.863174 0.00788689 0.863174Z" fill="#141414"/>
</svg>
