<svg width="40" height="41" viewBox="0 0 40 41" fill="none" xmlns="http://www.w3.org/2000/svg">
<path d="M15 19.6125C21.9035 19.6125 27.5 17.0942 27.5 13.9875C27.5 10.8809 21.9035 8.36255 15 8.36255C8.09643 8.36255 2.49998 10.8809 2.49998 13.9875C2.49998 17.0942 8.09643 19.6125 15 19.6125Z" fill="#EAFB06" stroke="#141414" stroke-width="3" stroke-linecap="round" stroke-linejoin="round"/>
<path d="M2.49998 13.9875V20.2375C2.49998 23.3469 8.09373 25.8625 15 25.8625C21.9062 25.8625 27.5 23.3469 27.5 20.2375V13.9875" stroke="#141414" stroke-width="3" stroke-linecap="round" stroke-linejoin="round"/>
<path d="M9.99998 19.1438V25.3938" stroke="#141414" stroke-width="3" stroke-linecap="round" stroke-linejoin="round"/>
<path d="M27.5 15.9717C33.2031 16.5029 37.5 18.7686 37.5 21.4873C37.5 24.5967 31.9062 27.1123 25 27.1123C21.9375 27.1123 19.125 26.6123 16.9531 25.7998" stroke="#141414" stroke-width="3" stroke-linecap="round" stroke-linejoin="round"/>
<path d="M12.5 25.7532V27.7375C12.5 30.8469 18.0937 33.3625 25 33.3625C31.9062 33.3625 37.5 30.8469 37.5 27.7375V21.4875" stroke="#141414" stroke-width="3" stroke-linecap="round" stroke-linejoin="round"/>
<path d="M30 26.6438V32.8938" stroke="#141414" stroke-width="3" stroke-linecap="round" stroke-linejoin="round"/>
<path d="M20 19.1438V32.8938" stroke="#141414" stroke-width="3" stroke-linecap="round" stroke-linejoin="round"/>
</svg>
