<svg width="30" height="31" viewBox="0 0 30 31" fill="none" xmlns="http://www.w3.org/2000/svg">
<path d="M2.08968e-07 15.0446C6.79145e-07 22.7539 15.0001 15.0446 15.0001 15.0446C15.0001 15.0446 -2.61209e-07 7.33518 2.08968e-07 15.0446Z" fill="#0809EC"/>
<path d="M30 15.0446C30 22.7539 14.9999 15.0446 14.9999 15.0446C14.9999 15.0446 30 7.33518 30 15.0446Z" fill="#0809EC"/>
<path d="M7.49984 28.3314C14.0275 32.186 14.9999 15.0448 14.9999 15.0448C14.9999 15.0448 0.97213 24.4767 7.49984 28.3314Z" fill="#0809EC"/>
<path d="M22.5008 1.75812C29.0285 5.6128 15.0008 15.0447 15.0008 15.0447C15.0008 15.0447 15.9731 -2.09657 22.5008 1.75812Z" fill="#0809EC"/>
<path d="M22.5002 28.3314C15.9725 32.186 15.0001 15.0448 15.0001 15.0448C15.0001 15.0448 29.0279 24.4767 22.5002 28.3314Z" fill="#0809EC"/>
<path d="M7.49919 1.75812C0.971483 5.6128 14.9992 15.0447 14.9992 15.0447C14.9992 15.0447 14.0269 -2.09657 7.49919 1.75812Z" fill="#0809EC"/>
</svg>
