<svg width="15" height="16" viewBox="0 0 15 16" fill="none" xmlns="http://www.w3.org/2000/svg">
<path d="M3.19336 12.0566C2.6543 11.5176 3.01172 10.3867 2.73633 9.72461C2.46094 9.0625 1.40625 8.48242 1.40625 7.75C1.40625 7.01758 2.44922 6.46094 2.73633 5.77539C3.02344 5.08984 2.6543 3.98242 3.19336 3.44336C3.73242 2.9043 4.86328 3.26172 5.52539 2.98633C6.1875 2.71094 6.76758 1.65625 7.5 1.65625C8.23242 1.65625 8.78906 2.69922 9.47461 2.98633C10.1602 3.27344 11.2676 2.9043 11.8066 3.44336C12.3457 3.98242 11.9883 5.11328 12.2637 5.77539C12.5391 6.4375 13.5938 7.01758 13.5938 7.75C13.5938 8.48242 12.5508 9.03906 12.2637 9.72461C11.9766 10.4102 12.3457 11.5176 11.8066 12.0566C11.2676 12.5957 10.1367 12.2383 9.47461 12.5137C8.8125 12.7891 8.23242 13.8438 7.5 13.8438C6.76758 13.8438 6.21094 12.8008 5.52539 12.5137C4.83984 12.2266 3.73242 12.5957 3.19336 12.0566Z" fill="#EFFD52" stroke="#EFFD52" stroke-width="1.2" stroke-linecap="round" stroke-linejoin="round"/>
<path d="M10.0781 6.34375L6.63867 9.625L4.92188 7.98438" stroke="#202020" stroke-width="1.2" stroke-linecap="round" stroke-linejoin="round"/>
</svg>
