<svg width="10" height="11" viewBox="0 0 10 11" fill="none" xmlns="http://www.w3.org/2000/svg">
<path d="M2.12891 8.62109C1.76953 8.26172 2.00781 7.50781 1.82422 7.06641C1.64063 6.625 0.9375 6.23828 0.9375 5.75C0.9375 5.26172 1.63281 4.89063 1.82422 4.43359C2.01563 3.97656 1.76953 3.23828 2.12891 2.87891C2.48828 2.51953 3.24219 2.75781 3.68359 2.57422C4.125 2.39063 4.51172 1.6875 5 1.6875C5.48828 1.6875 5.85937 2.38281 6.31641 2.57422C6.77344 2.76563 7.51172 2.51953 7.87109 2.87891C8.23047 3.23828 7.99219 3.99219 8.17578 4.43359C8.35938 4.875 9.0625 5.26172 9.0625 5.75C9.0625 6.23828 8.36719 6.60937 8.17578 7.06641C7.98438 7.52344 8.23047 8.26172 7.87109 8.62109C7.51172 8.98047 6.75781 8.74219 6.31641 8.92578C5.875 9.10938 5.48828 9.8125 5 9.8125C4.51172 9.8125 4.14063 9.11719 3.68359 8.92578C3.22656 8.73438 2.48828 8.98047 2.12891 8.62109Z" stroke="#EFFD52" stroke-width="0.8" stroke-linecap="round" stroke-linejoin="round"/>
<path d="M6.71875 4.8125L4.42578 7L3.28125 5.90625" stroke="#EFFD52" stroke-width="0.8" stroke-linecap="round" stroke-linejoin="round"/>
</svg>
