<svg width="24" height="25" viewBox="0 0 24 25" fill="none" xmlns="http://www.w3.org/2000/svg">
<path d="M4.125 18.6812V6.68115C4.125 7.07898 4.28304 7.46051 4.56434 7.74181C4.84564 8.02312 5.22718 8.18115 5.625 8.18115H20.625C20.8239 8.18115 21.0147 8.26017 21.1553 8.40082C21.296 8.54147 21.375 8.73224 21.375 8.93115V19.4312C21.375 19.6301 21.296 19.8208 21.1553 19.9615C21.0147 20.1021 20.8239 20.1812 20.625 20.1812H5.625C5.22718 20.1812 4.84564 20.0231 4.56434 19.7418C4.28304 19.4605 4.125 19.079 4.125 18.6812Z" fill="#ECF962"/>
<path d="M3.75 6.75V18.75C3.75 19.1478 3.90804 19.5294 4.18934 19.8107C4.47064 20.092 4.85218 20.25 5.25 20.25H20.25C20.4489 20.25 20.6397 20.171 20.7803 20.0303C20.921 19.8897 21 19.6989 21 19.5V9C21 8.80109 20.921 8.61032 20.7803 8.46967C20.6397 8.32902 20.4489 8.25 20.25 8.25H5.25C4.85218 8.25 4.47064 8.09196 4.18934 7.81066C3.90804 7.52936 3.75 7.14782 3.75 6.75ZM3.75 6.75C3.75 6.35218 3.90804 5.97064 4.18934 5.68934C4.47064 5.40804 4.85218 5.25 5.25 5.25H18" stroke="#202020" stroke-width="1.5" stroke-linecap="round" stroke-linejoin="round"/>
<path d="M16.875 15.375C17.4963 15.375 18 14.8713 18 14.25C18 13.6287 17.4963 13.125 16.875 13.125C16.2537 13.125 15.75 13.6287 15.75 14.25C15.75 14.8713 16.2537 15.375 16.875 15.375Z" fill="black"/>
</svg>
