<svg width="30" height="29" viewBox="0 0 30 29" fill="none" xmlns="http://www.w3.org/2000/svg">
<path d="M14.4405 5.76503C14.7098 6.1583 15.2902 6.15831 15.5595 5.76503L18.6441 1.26167C19.0263 0.703687 19.9003 0.987603 19.8816 1.66367L19.7306 7.12408C19.7174 7.60051 20.1868 7.94156 20.6358 7.7818L25.7772 5.95251C26.4143 5.72584 26.9544 6.46904 26.5421 7.005L23.2108 11.3353C22.9203 11.713 23.0996 12.2646 23.5566 12.3994L28.7906 13.9425C29.4394 14.1337 29.439 15.0528 28.7901 15.2436L23.5575 16.7822C23.1002 16.9167 22.9206 17.4686 23.2113 17.8464L26.5421 22.1761C26.9544 22.7121 26.4143 23.4553 25.7772 23.2286L20.6358 21.3993C20.1868 21.2396 19.7174 21.5806 19.7306 22.0571L19.8816 27.5175C19.9003 28.1935 19.0263 28.4775 18.6441 27.9195L15.5595 23.4161C15.2902 23.0228 14.7098 23.0228 14.4405 23.4161L11.3559 27.9195C10.9737 28.4775 10.0997 28.1935 10.1184 27.5175L10.2694 22.0571C10.2826 21.5806 9.8132 21.2396 9.36417 21.3993L4.22276 23.2286C3.58567 23.4553 3.04556 22.7121 3.45787 22.1761L6.7887 17.8464C7.07936 17.4686 6.89981 16.9167 6.44248 16.7822L1.2099 15.2436C0.560961 15.0528 0.560631 14.1337 1.20943 13.9425L6.44341 12.3994C6.90045 12.2646 7.0797 11.713 6.78917 11.3353L3.45787 7.005C3.04556 6.46904 3.58567 5.72584 4.22276 5.95251L9.36416 7.7818C9.8132 7.94156 10.2826 7.60051 10.2694 7.12408L10.1184 1.66367C10.0997 0.987603 10.9737 0.703687 11.3559 1.26167L14.4405 5.76503Z" fill="#EAFB06"/>
</svg>
