<svg width="42" height="12" viewBox="0 0 42 12" fill="none" xmlns="http://www.w3.org/2000/svg">
<path d="M3.28 12C3.14133 12 3.02933 11.9627 2.944 11.888C2.86933 11.8133 2.816 11.7067 2.784 11.568L0.72 1.296C0.709333 1.25333 0.704 1.216 0.704 1.184C0.704 1.152 0.704 1.13067 0.704 1.12C0.704 1.03467 0.736 0.96 0.8 0.896C0.864 0.831999 0.938667 0.799999 1.024 0.799999H1.856C2.08 0.799999 2.208 0.890666 2.24 1.072L3.872 9.328L5.6 3.664C5.632 3.568 5.68533 3.48267 5.76 3.408C5.84533 3.32267 5.96267 3.28 6.112 3.28H6.704C6.864 3.28 6.98133 3.32267 7.056 3.408C7.13067 3.48267 7.17867 3.568 7.2 3.664L8.944 9.328L10.56 1.072C10.592 0.890666 10.7253 0.799999 10.96 0.799999H11.792C11.8773 0.799999 11.952 0.831999 12.016 0.896C12.08 0.96 12.112 1.03467 12.112 1.12C12.112 1.13067 12.1067 1.152 12.096 1.184C12.096 1.216 12.096 1.25333 12.096 1.296L10.032 11.568C10 11.7067 9.94133 11.8133 9.856 11.888C9.78133 11.9627 9.67467 12 9.536 12H8.912C8.76267 12 8.64533 11.9627 8.56 11.888C8.47467 11.8133 8.416 11.7173 8.384 11.6L6.4 5.504L4.432 11.6C4.38933 11.7173 4.32533 11.8133 4.24 11.888C4.16533 11.9627 4.05333 12 3.904 12H3.28ZM14.5725 12C14.4552 12 14.3645 11.968 14.3005 11.904C14.2365 11.8293 14.2045 11.7387 14.2045 11.632V1.184C14.2045 1.06667 14.2365 0.976 14.3005 0.912C14.3645 0.837333 14.4552 0.799999 14.5725 0.799999H21.1805C21.2978 0.799999 21.3885 0.837333 21.4525 0.912C21.5165 0.976 21.5485 1.06667 21.5485 1.184V1.792C21.5485 1.90933 21.5165 2 21.4525 2.064C21.3885 2.128 21.2978 2.16 21.1805 2.16H15.7405V5.664H20.8285C20.9458 5.664 21.0365 5.70133 21.1005 5.776C21.1645 5.84 21.1965 5.93067 21.1965 6.048V6.64C21.1965 6.74667 21.1645 6.83733 21.1005 6.912C21.0365 6.976 20.9458 7.008 20.8285 7.008H15.7405V10.64H21.3085C21.4258 10.64 21.5165 10.672 21.5805 10.736C21.6445 10.8 21.6765 10.8907 21.6765 11.008V11.632C21.6765 11.7387 21.6445 11.8293 21.5805 11.904C21.5165 11.968 21.4258 12 21.3085 12H14.5725ZM26.7236 12C26.617 12 26.5263 11.968 26.4516 11.904C26.3876 11.8293 26.3556 11.7387 26.3556 11.632V2.224H23.2836C23.177 2.224 23.0863 2.192 23.0116 2.128C22.9476 2.05333 22.9156 1.96267 22.9156 1.856V1.184C22.9156 1.06667 22.9476 0.976 23.0116 0.912C23.0863 0.837333 23.177 0.799999 23.2836 0.799999H30.9956C31.113 0.799999 31.2036 0.837333 31.2676 0.912C31.3423 0.976 31.3796 1.06667 31.3796 1.184V1.856C31.3796 1.96267 31.3423 2.05333 31.2676 2.128C31.2036 2.192 31.113 2.224 30.9956 2.224H27.9396V11.632C27.9396 11.7387 27.9023 11.8293 27.8276 11.904C27.7636 11.968 27.673 12 27.5556 12H26.7236ZM33.5413 12C33.4239 12 33.3333 11.968 33.2693 11.904C33.2053 11.8293 33.1733 11.7387 33.1733 11.632V1.184C33.1733 1.06667 33.2053 0.976 33.2693 0.912C33.3333 0.837333 33.4239 0.799999 33.5413 0.799999H34.3573C34.4746 0.799999 34.5653 0.837333 34.6293 0.912C34.7039 0.976 34.7413 1.06667 34.7413 1.184V5.6H40.2453V1.184C40.2453 1.06667 40.2773 0.976 40.3413 0.912C40.4159 0.837333 40.5066 0.799999 40.6133 0.799999H41.4293C41.5466 0.799999 41.6373 0.837333 41.7013 0.912C41.7759 0.976 41.8133 1.06667 41.8133 1.184V11.632C41.8133 11.7387 41.7759 11.8293 41.7013 11.904C41.6373 11.968 41.5466 12 41.4293 12H40.6133C40.5066 12 40.4159 11.968 40.3413 11.904C40.2773 11.8293 40.2453 11.7387 40.2453 11.632V7.04H34.7413V11.632C34.7413 11.7387 34.7039 11.8293 34.6293 11.904C34.5653 11.968 34.4746 12 34.3573 12H33.5413Z" fill="#202020"/>
</svg>
