<svg width="40" height="41" viewBox="0 0 40 41" fill="none" xmlns="http://www.w3.org/2000/svg">
<rect y="0.75" width="40" height="40" rx="11.1111" fill="#030303"/>
<path opacity="0.8" d="M10.8333 17.6984C10.8333 14.321 13.5713 11.583 16.9487 11.583C17.9619 11.583 18.7833 12.4044 18.7833 13.4176V26.2118C18.7833 28.4071 17.0036 30.1868 14.8083 30.1868C12.613 30.1868 10.8333 28.4071 10.8333 26.2118V17.6984Z" fill="#ECF962"/>
<path opacity="0.6" d="M20.9534 14.0639C20.9534 17.5099 23.747 20.3035 27.193 20.3035C28.2268 20.3035 29.0648 19.4654 29.0648 18.4316V15.6828C29.0648 13.4429 27.249 11.6271 25.0091 11.6271H22.9557C21.8499 11.6271 20.9534 12.5235 20.9534 13.6293V14.0639Z" fill="#ECF962"/>
<circle r="4.07588" transform="matrix(1 0 0 -1 25.306 26.1069)" fill="#ECF962"/>
</svg>
