<svg xmlns="http://www.w3.org/2000/svg" width="163.2" height="142.068" viewBox="0 0 163.2 142.068">
  <g id="Group_243" data-name="Group 243" transform="translate(-245.94 -104.134)">
    <path id="Path_54" data-name="Path 54" d="M254.413,165.191a26.871,26.871,0,0,1,21.864-42.5,27.1,27.1,0,0,1,3.79.271A26.88,26.88,0,0,1,327.8,115.7a26.871,26.871,0,0,1,48.954,14.909,33.979,33.979,0,0,1-1.051,67.915A26.877,26.877,0,0,1,330,214.759,26.88,26.88,0,0,1,279.9,210.7a26.873,26.873,0,0,1-25.484-45.508Z" transform="translate(0)" fill="#f5f5f5"/>
    <circle id="Ellipse_3" data-name="Ellipse 3" cx="7.916" cy="7.916" r="7.916" transform="translate(376.313 210.763) rotate(-45)" fill="#f5f5f5"/>
    <circle id="Ellipse_4" data-name="Ellipse 4" cx="5.023" cy="5.023" r="5.023" transform="translate(385.46 223.732)" fill="#f5f5f5"/>
    <path id="Path_55" data-name="Path 55" d="M383.174,244.166a3.692,3.692,0,1,0,3.693-3.693A3.692,3.692,0,0,0,383.174,244.166Z" transform="translate(-1.666 -1.655)" fill="#f5f5f5"/>
    <text id="ZZZ..." transform="translate(281.323 180.579)" fill="#3c214e" font-size="55" font-family="LondrinaSolid-Regular, Londrina Solid"><tspan x="0" y="0">Z</tspan><tspan y="0" font-size="47">Z</tspan><tspan y="0" font-size="40">Z</tspan><tspan y="0">...</tspan></text>
  </g>
</svg>
